<?xml version="1.0" encoding="utf-8"?>
<!-- Generator: Adobe Illustrator 16.0.3, SVG Export Plug-In . SVG Version: 6.00 Build 0)  -->
<!DOCTYPE svg PUBLIC "-//W3C//DTD SVG 1.1//EN" "http://www.w3.org/Graphics/SVG/1.1/DTD/svg11.dtd">
<svg version="1.1" id="Capa_1" xmlns="http://www.w3.org/2000/svg" xmlns:xlink="http://www.w3.org/1999/xlink" x="0px" y="0px"
	 width="512px" height="512px" viewBox="0 0 512 512" enable-background="new 0 0 512 512" xml:space="preserve">
<path fill="#E2B465" d="M247.577,130.423c6.693-6.689,10.833-15.936,10.833-26.148c0-20.42-16.556-36.976-36.977-36.976H97.454
	c-20.423,0-36.98,16.556-36.98,36.976c0,10.212,4.139,19.458,10.832,26.148l88.136,88.136L247.577,130.423z"/>
<path fill="#82B845" d="M97.862,156.979l61.58,61.58l61.579-61.58l21.151-107.105c2.436-12.34-11.017-21.646-21.703-15.014
	l-9.559,5.928c-5.959,3.697-13.714,2.561-18.363-2.694l-22.327-25.237c-5.727-6.474-15.828-6.474-21.557,0l-22.327,25.237
	c-4.647,5.255-12.403,6.391-18.365,2.694l-9.555-5.928c-10.688-6.632-24.14,2.674-21.704,15.014L97.862,156.979z"/>
<path fill="#36AD64" d="M180.106,197.894C140.51,148.38,127.496,71.116,139.628,23.07l-13.292,15.024
	c-4.644,5.251-12.403,6.391-18.361,2.691l-9.555-5.928c-10.688-6.633-24.144,2.677-21.708,15.017l21.151,107.105l61.58,61.58
	L180.106,197.894z"/>
<path fill="#FED402" d="M215.196,131.291c0-14.763-11.968-26.734-26.735-26.734c-4.414,0-8.57,1.076-12.24,2.969
	c-4.815-4.686-11.388-7.578-18.637-7.578c-6.904,0-13.195,2.618-17.937,6.91c-2.876-1.055-5.982-1.635-9.228-1.635
	c-14.766,0-26.733,11.971-26.733,26.737v68.593h111.509V131.291z"/>
<path fill="#FB2B3A" d="M210.493,137.327c-20.602,0-37.425,16.164-38.484,36.5c-3.787-1.887-8.05-2.956-12.567-2.956
	c-4.518,0-8.784,1.069-12.568,2.956c-1.058-20.337-17.883-36.5-38.485-36.5c-21.281,0-38.535,17.253-38.535,38.535
	c0,21.285,17.253,38.538,38.535,38.538c8.962,0,17.203-3.066,23.745-8.198c3.157,12.136,14.187,21.097,27.308,21.097
	c13.124,0,24.15-8.961,27.307-21.097c6.544,5.131,14.783,8.198,23.744,8.198c21.282,0,38.539-17.253,38.539-38.538
	C249.028,154.58,231.775,137.327,210.493,137.327z"/>
<path fill="#FED402" d="M258.409,104.275c0,10.212-4.14,19.458-10.833,26.148L80.22,297.778
	c-13.121,13.126-20.494,30.921-20.494,49.479v25.179c0,41.336,33.507,74.844,74.844,74.844h49.742
	c41.335,0,74.843-33.508,74.843-74.844V118.843L258.409,104.275z"/>
<path fill="#FEDF74" d="M60.474,104.275c0,10.212,4.139,19.458,10.832,26.148l167.356,167.355
	c13.121,13.126,20.494,30.921,20.494,49.479v25.179c0,41.336-33.508,74.844-74.843,74.844h-49.746
	c-41.333,0-74.841-33.508-74.841-74.844V118.843L60.474,104.275z"/>
<path fill="#FED402" d="M134.571,447.279h49.742c10.141,0,19.803-2.027,28.624-5.681c-84.229-45.023-94.677-157.194-89.225-258.77
	l-52.406-52.406c-6.693-6.689-10.832-15.936-10.832-26.148l-0.747,14.568v253.592C59.727,413.771,93.234,447.279,134.571,447.279z"
	/>
<g>
	<path fill="#E2B465" d="M429.769,312.341c9.463,0.002,18.928-3.609,26.148-10.83c14.439-14.439,14.439-37.853,0-52.292
		l-87.667-87.667c-14.441-14.441-37.854-14.441-52.295-0.002c-7.22,7.221-10.831,16.685-10.829,26.148v124.644L429.769,312.341z"/>
	<path fill="#82B845" d="M305.126,225.255v87.087l87.086-0.001l90.69-60.778c10.449-7.004,7.516-23.097-4.73-25.964l-10.95-2.567
		c-6.828-1.599-11.508-7.886-11.079-14.889l2.056-33.633c0.529-8.628-6.613-15.771-15.242-15.243l-33.633,2.058
		c-7.001,0.429-13.289-4.251-14.892-11.081l-2.563-10.948c-2.868-12.248-18.961-15.179-25.964-4.73L305.126,225.255z"/>
	<path fill="#36AD64" d="M334.351,312.342c7.012-63.012,52.443-126.848,94.996-152.242l-20.023,1.225
		c-6.997,0.429-13.289-4.251-14.886-11.081l-2.564-10.948c-2.868-12.248-18.966-15.179-25.969-4.73l-60.778,90.69v87.087H334.351z"
		/>
	<path fill="#FED402" d="M406.258,290.057c10.439-10.438,10.44-27.365-0.001-37.807c-3.12-3.122-6.819-5.298-10.754-6.556
		c-0.092-6.718-2.694-13.41-7.82-18.536c-4.882-4.881-11.181-7.479-17.57-7.796c-1.286-2.781-3.072-5.386-5.367-7.682
		c-10.44-10.441-27.368-10.438-37.81,0.003l-48.503,48.503l78.848,78.848L406.258,290.057z"/>
	<path fill="#FB2B3A" d="M398.664,291c-14.566-14.567-37.894-15.033-53.021-1.402c-1.345-4.012-3.602-7.783-6.797-10.976
		c-3.195-3.195-6.968-5.457-10.978-6.798c13.632-15.129,13.164-38.456-1.402-53.022c-15.049-15.048-39.447-15.048-54.496,0
		c-15.051,15.05-15.051,39.45-0.003,54.498c6.337,6.337,14.333,9.996,22.588,10.994c-6.35,10.813-4.887,24.949,4.391,34.229
		c9.28,9.279,23.413,10.739,34.228,4.39c0.999,8.256,4.656,16.25,10.993,22.587c15.049,15.049,39.45,15.051,54.501,0
		C413.713,330.449,413.713,306.049,398.664,291z"/>
	<path fill="#FED402" d="M455.917,301.511c-7.221,7.221-16.686,10.832-26.148,10.83L193.09,312.34
		c-18.558,0.004-36.355,7.374-49.478,20.495l-17.804,17.805c-29.229,29.229-29.229,76.615,0,105.845l35.173,35.174
		c29.229,29.229,76.616,29.229,105.844,0l179.317-179.317L455.917,301.511z"/>
	<path fill="#FEDF74" d="M315.955,161.549c-7.22,7.221-10.831,16.685-10.829,26.148v236.677
		c-0.002,18.559-7.372,36.356-20.494,49.479l-17.806,17.805c-29.228,29.229-76.615,29.229-105.844,0l-35.175-35.176
		c-29.227-29.228-29.227-76.613,0.002-105.843l179.317-179.317L315.955,161.549z"/>
	<path fill="#FED402" d="M125.809,456.484l35.173,35.174c7.171,7.17,15.437,12.569,24.257,16.223
		c-27.722-91.395,44.206-178.101,119.887-246.069v-74.114c-0.002-9.463,3.609-18.927,10.829-26.148l-10.829,9.773L125.809,350.64
		C96.581,379.869,96.581,427.255,125.809,456.484z"/>
</g>
</svg>
