<?xml version="1.0" encoding="utf-8"?>
<!-- Generator: Adobe Illustrator 16.0.3, SVG Export Plug-In . SVG Version: 6.00 Build 0)  -->
<!DOCTYPE svg PUBLIC "-//W3C//DTD SVG 1.1//EN" "http://www.w3.org/Graphics/SVG/1.1/DTD/svg11.dtd">
<svg version="1.1" id="Layer_1" xmlns="http://www.w3.org/2000/svg" xmlns:xlink="http://www.w3.org/1999/xlink" x="0px" y="0px"
	 width="800px" height="800px" viewBox="0 0 800 800" enable-background="new 0 0 800 800" xml:space="preserve">
<path fill="#FFC33E" d="M281.859,776.44V418.397c0.001,0,0.003,0,0.004,0c-20.083-3.711-35.298-21.303-35.298-42.458
	c0-29.042,28.2-49.923,56.051-41.245c4.566-14.359,14.018-26.523,26.38-34.6c-5.203-5.791-14.341-9.455-22.737-9.455h1.472
	L277.621,67.275c-15.95,0-67.509,0-83.5,0L164.017,290.64c-15.703,0-28.43,12.729-28.43,28.43v452.5
	c0,15.702,12.728,28.43,28.43,28.43h141.4C292.406,799.998,281.859,789.451,281.859,776.44z"/>
<path fill="#F9A832" d="M175.911,775.333v-441.21c0-12.91,8.612-23.794,20.401-27.261l-0.011-0.009
	c4.239-0.628,8.413-4.092,9.212-10.381l29.173-229.2h-40.569L164.017,290.64c-15.703,0-28.43,12.729-28.43,28.43v452.5
	c0,15.702,12.728,28.43,28.43,28.43h26.226C181.688,795.099,175.911,785.898,175.911,775.333z"/>
<path fill="#D8D4D2" d="M178.365,184.176h115.016L277.623,67.273c-15.95,0-67.509,0-83.5,0L178.365,184.176z"/>
<polygon fill="#C4BEBB" points="219.809,184.176 234.69,67.275 194.122,67.275 178.365,184.176 "/>
<path fill="#ED4343" d="M281.859,418.397c0.001,0,0.003,0,0.004,0c-20.083-3.711-35.298-21.303-35.298-42.458
	c0-2.513,0.227-4.972,0.639-7.364H135.585v350.706h146.272V418.397H281.859z"/>
<rect x="135.595" y="368.578" fill="#C93F3F" width="40.325" height="350.703"/>
<path fill="#B72929" d="M280.251,674.932h-91.198c-6.681,0-12.097-5.416-12.097-12.097c0-6.682,5.416-12.098,12.097-12.098h91.198
	c6.681,0,12.097,5.416,12.097,12.098C292.348,669.516,286.932,674.932,280.251,674.932z"/>
<path fill="#7F5030" d="M302.673,43.837c0,13.834-11.217,25.05-25.052,25.05h-83.5c-13.834,0-25.05-11.215-25.05-25.05V25.05
	c0-13.836,11.214-25.05,25.05-25.05h83.5c13.834,0,25.052,11.214,25.052,25.05V43.837z"/>
<path fill="#704528" d="M235.872,43.837V25.05c0-13.836,11.214-25.05,25.051-25.05h-66.801c-13.834,0-25.05,11.214-25.05,25.05
	v18.788c0,13.834,11.216,25.05,25.05,25.05h66.801C247.085,68.887,235.872,57.672,235.872,43.837z"/>
<path fill="#7F5030" d="M617.617,436.408h-67.056v39.265h67.056c4.153,0,7.531,3.378,7.531,7.531v214.149
	c0,4.151-3.376,7.531-7.531,7.531h-67.056c0,39.556,0.083,36.928-0.219,39.264h67.274c25.805,0,46.796-20.992,46.796-46.795V483.204
	C664.413,457.4,643.422,436.408,617.617,436.408z"/>
<path fill="#FFC33E" d="M550.496,410.115c-0.09,0.039-0.18,0.079-0.271,0.12c-1.075,0.485-2.166,0.938-3.272,1.364
	c-0.063,0.024-0.124,0.05-0.187,0.074c-2.355,0.897-4.775,1.664-7.252,2.285c-0.089,0.021-0.185,0.04-0.273,0.063
	c-1.068,0.261-2.146,0.498-3.236,0.706c-0.323,0.063-0.648,0.117-0.972,0.173c-0.876,0.155-1.756,0.294-2.644,0.411
	c-0.391,0.052-0.779,0.104-1.174,0.15c-0.87,0.099-1.751,0.178-2.636,0.242c-0.37,0.028-0.739,0.063-1.11,0.084
	c-1.238,0.07-2.483,0.116-3.738,0.116c-1.063,0-2.115-0.033-3.164-0.083c-0.383-0.019-0.761-0.049-1.142-0.072
	c-0.65-0.044-1.3-0.094-1.944-0.156c-0.477-0.045-0.949-0.097-1.422-0.153c-0.511-0.061-1.019-0.133-1.524-0.204
	c-0.557-0.078-1.111-0.156-1.661-0.249c-0.247-0.04-0.492-0.094-0.74-0.139c-2.406-0.436-4.77-1.005-7.075-1.7
	c-0.063-0.021-0.128-0.039-0.19-0.058c-0.824-0.25-1.641-0.516-2.452-0.799v69.71c0,13.553-10.988,24.54-24.54,24.54
	c-13.554,0-24.541-10.987-24.541-24.54v-68.427h-0.003c-2.472,0.849-5.166,1.463-7.367,1.8c-0.766,0.119-1.537,0.213-2.315,0.291
	c-0.335,0.032-0.666,0.071-1.002,0.099c-1.103,0.082-2.211,0.139-3.336,0.139c-13.644,0-25.802-6.333-33.717-16.214
	c-24.055,21.237-59.998,21.672-84.553,0.992c-17.004,19.981-39.185,14.489-40.797,14.489v361.268
	c0,13.011,10.547,23.558,23.558,23.558h226.426c13.01,0,23.558-10.547,23.558-23.558V408.509c-0.001,0-0.004,0-0.006,0.001
	C552.703,409.076,551.608,409.608,550.496,410.115z"/>
<path fill="#F9A832" d="M323.118,776.44c0-16.751,0-359.155,0-374.103c-0.7-0.542-1.398-1.086-2.075-1.654
	c-17.003,19.981-39.184,14.489-40.797,14.489V776.44c0,13.012,10.547,23.559,23.558,23.559h42.872
	C333.665,799.998,323.118,789.451,323.118,776.44z"/>
<g>
	<path fill="#F9E178" d="M335.215,704.117c-6.681,0-12.097-5.415-12.097-12.097V485.226c0-6.682,5.416-12.097,12.097-12.097
		c6.682,0,12.097,5.415,12.097,12.097v206.793C347.312,698.702,341.896,704.117,335.215,704.117z"/>
	<path fill="#F9E178" d="M390.186,704.117c-6.682,0-12.098-5.415-12.098-12.097V485.226c0-6.682,5.418-12.097,12.098-12.097
		c6.681,0,12.097,5.415,12.097,12.097v206.793C402.282,698.702,396.866,704.117,390.186,704.117z"/>
	<path fill="#F9E178" d="M445.155,704.117c-6.681,0-12.097-5.415-12.097-12.097V546.087c0-6.682,5.416-12.098,12.097-12.098
		c6.682,0,12.097,5.416,12.097,12.098v145.934C457.252,698.702,451.837,704.117,445.155,704.117z"/>
	<path fill="#F9E178" d="M500.126,704.117c-6.682,0-12.098-5.415-12.098-12.097V546.087c0-6.682,5.416-12.098,12.098-12.098
		c6.681,0,12.097,5.416,12.097,12.098v145.934C512.224,698.702,506.807,704.117,500.126,704.117z"/>
</g>
<path fill="#FCEBA4" d="M523.731,289.557c-8.41,0-16.438,1.619-23.811,4.536c-20.028-50.745-92.258-50.347-111.673,0.684
	c-35.121-15.051-75.675,3.516-87.247,39.919c-27.825-8.67-56.051,12.177-56.051,41.245c0,40.269,50.267,58.317,76.09,27.969
	c24.419,20.565,60.368,20.359,84.553-0.992c7.916,9.881,20.072,16.214,33.718,16.214c4.907,0,9.628-0.82,14.023-2.329v68.426
	c0,13.554,10.987,24.541,24.54,24.541s24.541-10.987,24.541-24.541V415.52c6.675,2.33,13.84,3.614,21.315,3.614
	c35.779,0,64.785-29.006,64.785-64.786C588.518,318.562,559.513,289.557,523.731,289.557z"/>
<path fill="#F9E178" d="M346.779,366.423c11.573-36.409,52.131-54.967,87.246-39.919c9.564-25.136,35.188-41.553,63.266-38.151
	c-23.895-45.69-90.711-41.758-109.042,6.423c-35.12-15.051-75.675,3.516-87.246,39.919c-27.825-8.67-56.052,12.176-56.052,41.245
	c0,25.242,21.656,45.389,47.269,42.986C283.404,386.201,314.162,356.259,346.779,366.423z"/>
<path fill="#7F5030" d="M280.245,744.372v32.067c0,13.011,10.547,23.558,23.558,23.558h226.426c13.01,0,23.558-10.547,23.558-23.558
	v-32.067H280.245z"/>
<path fill="#704528" d="M323.118,776.44v-32.066h-42.872v32.066c0,13.011,10.547,23.558,23.558,23.558h42.872
	C333.665,799.998,323.118,789.451,323.118,776.44z"/>
</svg>
