<?xml version="1.0" encoding="utf-8"?>
<!-- Generator: Adobe Illustrator 16.0.3, SVG Export Plug-In . SVG Version: 6.00 Build 0)  -->
<!DOCTYPE svg PUBLIC "-//W3C//DTD SVG 1.1//EN" "http://www.w3.org/Graphics/SVG/1.1/DTD/svg11.dtd">
<svg version="1.1" id="Capa_1" xmlns="http://www.w3.org/2000/svg" xmlns:xlink="http://www.w3.org/1999/xlink" x="0px" y="0px"
	 width="800px" height="800px" viewBox="0 0 800 800" enable-background="new 0 0 800 800" xml:space="preserve">
<g>
	<path fill="#4A5058" d="M155.939,695.313C69.953,695.313,0,625.359,0,539.375s69.953-155.938,155.939-155.938
		s155.938,69.953,155.938,155.938S241.923,695.313,155.939,695.313z M155.939,430.058c-60.278,0-109.317,49.039-109.317,109.315
		c0,60.278,49.039,109.317,109.317,109.317c60.278,0,109.317-49.039,109.317-109.317
		C265.255,479.097,216.216,430.058,155.939,430.058z"/>
	<path fill="#4A5058" d="M644.063,695.313c-85.986,0-155.939-69.953-155.939-155.938s69.953-155.938,155.939-155.938
		c85.984,0,155.938,69.953,155.938,155.938S730.047,695.313,644.063,695.313z M644.063,430.058
		c-60.278,0-109.317,49.039-109.317,109.315c0,60.278,49.039,109.317,109.317,109.317c60.276,0,109.315-49.039,109.315-109.317
		C753.378,479.097,704.339,430.058,644.063,430.058z"/>
</g>
<path fill="#76C9D2" d="M663.622,534.318l-65.424-253.087l25.116-17.694c20.863-14.699,33.154-37.764,33.723-63.28
	c0.566-25.517-10.69-49.104-30.883-64.714l-24.228-18.731c-8.827-6.822-21.515-5.2-28.341,3.626
	c-6.823,8.828-5.2,21.516,3.627,28.341l24.229,18.729c9.938,7.683,15.478,19.292,15.198,31.85
	c-0.278,12.558-6.328,23.909-16.599,31.146l-31.857,22.443l-288.417,17.8l-48.042-63.783c-6.709-8.916-19.375-10.702-28.291-3.994
	c-8.914,6.709-10.703,19.375-3.994,28.291l47.381,62.906L137.594,530.911c-3.333,7.225-2.116,15.732,3.109,21.732
	c3.9,4.477,9.487,6.937,15.237,6.935c1.955,0,3.932-0.284,5.863-0.87l244.91-74.297c0.034-0.011,0.066-0.026,0.103-0.038
	c0.716-0.222,1.424-0.482,2.119-0.787c0.104-0.045,0.206-0.099,0.311-0.146c0.366-0.168,0.729-0.338,1.088-0.53
	c0.139-0.073,0.273-0.151,0.409-0.228c0.133-0.075,0.263-0.155,0.394-0.233c0.249-0.146,0.495-0.297,0.739-0.456
	c0.209-0.136,0.417-0.276,0.62-0.42c0.101-0.07,0.2-0.143,0.3-0.215c0.067-0.048,0.137-0.09,0.202-0.139
	c0.102-0.076,0.19-0.164,0.29-0.242c0.28-0.219,0.555-0.44,0.82-0.674c0.106-0.092,0.213-0.181,0.316-0.274
	c0.148-0.135,0.289-0.275,0.433-0.413c0.247-0.237,0.484-0.48,0.719-0.729c0.078-0.084,0.167-0.156,0.243-0.242l0.146-0.161
	c0.021-0.021,0.041-0.045,0.062-0.066l148.936-164.333l59.545,230.349c2.354,9.107,10.555,15.151,19.546,15.151
	c1.672,0,3.375-0.21,5.07-0.647C659.922,556.143,666.414,545.12,663.622,534.318z M193.136,506.979l81.285-176.172l92.895,123.332
	L193.136,506.979z M402.291,433.4l-93.302-123.972l217.841-13.445L402.291,433.4z"/>
<path opacity="0.1" enable-background="new    " d="M633.076,141.552c-2.175-2.109-4.479-4.121-6.922-6.008l-24.228-18.731
	c-0.609-0.47-1.241-0.892-1.883-1.283h-20.93c-2.07,1.253-3.958,2.881-5.528,4.911c-6.823,8.828-5.2,21.516,3.627,28.341
	l24.229,18.729c3.673,2.839,6.74,6.217,9.141,9.98c13.271-3.739,23.013-15.908,23.013-30.375l0,0
	C633.596,145.212,633.398,143.361,633.076,141.552z"/>
<path fill="#4A5058" d="M585.784,167.858h-80.365c-17.444,0-31.585-14.141-31.585-31.584l0,0c0-17.444,14.141-31.584,31.585-31.584
	h80.365c17.444,0,31.585,14.141,31.585,31.584l0,0C617.369,153.716,603.229,167.858,585.784,167.858z"/>
<path opacity="0.1" enable-background="new    " d="M231.727,206.969c-6.709-8.916-19.375-10.702-28.291-3.994
	c-8.914,6.709-10.703,19.375-3.994,28.291l18.223,24.195l46.048-6.022L231.727,206.969z"/>
<path fill="#4A5058" d="M288.673,228.342l-136.705,17.879c-19.6,2.564-36.983-12.695-36.983-32.461v-29.698
	c0-19.194,16.436-34.269,35.558-32.616l136.705,11.822c16.923,1.464,29.917,15.628,29.917,32.616l0,0
	C317.166,212.32,304.974,226.211,288.673,228.342z"/>
<path opacity="0.1" enable-background="new    " d="M139.016,213.761v-29.698c0-15.147,10.239-27.722,23.955-31.541l-12.425-1.075
	c-19.122-1.653-35.558,13.422-35.558,32.616v29.7c0,19.766,17.383,35.023,36.983,32.461l9.783-1.28
	C148.697,240.745,139.016,228.509,139.016,213.761z"/>
<polygon fill="#FBAB5F" points="383.014,264.378 366.514,305.878 489.886,298.264 506.386,256.763 "/>
<polygon fill="#9B7E73" points="466.65,259.216 449.813,300.736 489.817,298.269 506.654,256.749 "/>
</svg>
