<?xml version="1.0" encoding="utf-8"?>
<!-- Generator: Adobe Illustrator 16.0.3, SVG Export Plug-In . SVG Version: 6.00 Build 0)  -->
<!DOCTYPE svg PUBLIC "-//W3C//DTD SVG 1.1//EN" "http://www.w3.org/Graphics/SVG/1.1/DTD/svg11.dtd">
<svg version="1.1" id="Layer_3" xmlns="http://www.w3.org/2000/svg" xmlns:xlink="http://www.w3.org/1999/xlink" x="0px" y="0px"
	 width="512px" height="512px" viewBox="0 0 512 512" enable-background="new 0 0 512 512" xml:space="preserve">
<g>
	<path fill="#2D4D83" d="M386.344,82.344l11.313,11.313L412,79.312l22.344,22.344l11.313-11.313l-56-56l-11.313,11.313L400.688,68
		L386.344,82.344z"/>
	<path fill="#2D4D83" d="M100,79.312l14.344,14.344l11.313-11.313L111.312,68l22.344-22.344l-11.312-11.313l-56,56l11.312,11.313
		L100,79.312z"/>
	<path fill="#4472B2" d="M432,48h48v208h-48V48z"/>
	<path fill="#4472B2" d="M32,48h48v208H32V48z"/>
	<path fill="#A8B0BC" d="M16,16h480v32H16V16z"/>
	<path fill="#D6759E" d="M312,256v-48H200v48"/>
	<path fill="#F097D0" d="M200,208v30.056c6.328,1.264,13.04,1.944,20,1.944c31.12,0,57.296-13.544,65.376-32H200z"/>
	<path fill="#A8B0BC" d="M16,256h480v48H16V256z"/>
	<g>
		<path fill="#3D98F7" d="M80,448v48H48v-48"/>
		<path fill="#3D98F7" d="M200,448v48h-32v-48"/>
		<path fill="#3D98F7" d="M344,448v48h-32v-48"/>
		<path fill="#3D98F7" d="M464,448v48h-32v-48"/>
	</g>
	<path fill="#2D4D83" d="M32,84.688v22.624L68.688,144L32,180.688v22.624l42.344,42.344L80,240v-11.312L43.312,192L80,155.312
		v-22.624L43.312,96L80,59.312V48H68.688L32,84.688z"/>
	<path fill="#2D4D83" d="M468.688,96L432,132.688v22.624L468.688,192L432,228.688V240l5.656,5.656L480,203.312v-22.624L443.313,144
		L480,107.312V84.688L443.313,48H432v11.312L468.688,96z"/>
	<path fill="#F9D18B" d="M321.432,195.62l64.033-95.993l13.312,8.88L334.743,204.5L321.432,195.62z"/>
	<path fill="#F9D18B" d="M299.58,129.248l71.998-48.027l8.88,13.312L308.46,142.56L299.58,129.248z"/>
	<path fill="#F9D18B" d="M113.367,108.388l13.312-8.88l64.034,95.993l-13.312,8.88L113.367,108.388z"/>
	<path fill="#F9D18B" d="M131.608,94.685l8.88-13.312l71.998,48.027l-8.88,13.312L131.608,94.685z"/>
	<circle fill="#EFBE9A" cx="256" cy="152" r="16"/>
	<path fill="#4472B2" d="M233.6,188.8c1.504,2.016,3.88,3.2,6.4,3.2h32c2.52,0,4.889-1.184,6.4-3.2l24-32l-12.801-9.6L268,176h-24
		l-21.6-28.8l-12.8,9.6L233.6,188.8z"/>
	<path fill="#EFBE9A" d="M64,432c13.232,0,24-10.768,24-24s-10.768-24-24-24s-24,10.768-24,24S50.768,432,64,432z M64,400
		c4.408,0,8,3.584,8,8s-3.592,8-8,8s-8-3.584-8-8S59.592,400,64,400z"/>
	<path fill="#4472B2" d="M76.16,440H51.84l-29.6-37L9.744,413l32,40c1.528,1.896,3.824,3,6.256,3h32c2.432,0,4.728-1.104,6.248-3
		l32-40l-12.496-10L76.16,440z"/>
	<path fill="#EFBE9A" d="M184,432c13.232,0,24-10.768,24-24s-10.768-24-24-24s-24,10.768-24,24S170.768,432,184,432z M184,400
		c4.408,0,8,3.584,8,8s-3.592,8-8,8s-8-3.584-8-8S179.592,400,184,400z"/>
	<path fill="#4472B2" d="M196.16,440h-24.32l-29.6-37l-12.496,10l32,40c1.528,1.896,3.824,3,6.256,3h32c2.432,0,4.728-1.104,6.248-3
		l32-40l-12.496-10L196.16,440z"/>
	<path fill="#EFBE9A" d="M304,408c0,13.232,10.768,24,24,24s24-10.768,24-24s-10.768-24-24-24S304,394.768,304,408z M328,400
		c4.408,0,8,3.584,8,8s-3.592,8-8,8s-8-3.584-8-8S323.592,400,328,400z"/>
	<path fill="#4472B2" d="M340.16,440h-24.32l-29.6-37l-12.496,10l32,40c1.528,1.896,3.824,3,6.256,3h32c2.432,0,4.728-1.104,6.248-3
		l32-40l-12.496-10L340.16,440z"/>
	<path fill="#EFBE9A" d="M424,408c0,13.232,10.768,24,24,24s24-10.768,24-24s-10.768-24-24-24S424,394.768,424,408z M448,400
		c4.408,0,8,3.584,8,8s-3.592,8-8,8s-8-3.584-8-8S443.592,400,448,400z"/>
	<path fill="#4472B2" d="M489.752,403l-29.592,37h-24.32l-29.6-37l-12.496,10l32,40c1.527,1.896,3.824,3,6.256,3h32
		c2.432,0,4.729-1.104,6.248-3l32-40L489.752,403z"/>
	<path fill="#EFBE9A" d="M360,352c0,13.232,10.768,24,24,24s24-10.768,24-24s-10.768-24-24-24S360,338.768,360,352z M384,344
		c4.408,0,8,3.584,8,8s-3.592,8-8,8s-8-3.584-8-8S379.592,344,384,344z"/>
	<path fill="#4472B2" d="M368,400h32c2.432,0,4.728-1.104,6.248-3l32-40l-12.496-10l-29.592,37h-24.32l-29.6-37l-12.496,10l32,40
		C363.271,398.896,365.568,400,368,400L368,400z"/>
	<path fill="#EFBE9A" d="M256,328c-13.232,0-24,10.768-24,24s10.768,24,24,24c13.232,0,24-10.768,24-24S269.232,328,256,328z
		 M256,360c-4.408,0-8-3.584-8-8s3.592-8,8-8s8,3.584,8,8S260.408,360,256,360z"/>
	<path fill="#4472B2" d="M310.248,357l-12.496-10l-29.592,37h-24.32l-29.6-37l-12.496,10l32,40c1.528,1.896,3.824,3,6.256,3h32
		c2.432,0,4.729-1.104,6.248-3L310.248,357z"/>
	<path fill="#EFBE9A" d="M104,352c0,13.232,10.768,24,24,24s24-10.768,24-24s-10.768-24-24-24S104,338.768,104,352z M128,344
		c4.408,0,8,3.584,8,8s-3.592,8-8,8s-8-3.584-8-8S123.592,344,128,344z"/>
	<path fill="#4472B2" d="M73.752,357l32,40c1.52,1.896,3.816,3,6.248,3h32c2.432,0,4.728-1.104,6.248-3l32-40l-12.496-10l-29.592,37
		h-24.32l-29.6-37L73.752,357z"/>
</g>
</svg>
