<svg id="Capa_1" enable-background="new 0 0 512 512" height="512" viewBox="0 0 512 512" width="512" xmlns="http://www.w3.org/2000/svg"><g><path d="m195.43 117.453s-65.571-27.319-98.692-100.802c-1.909-4.235-7.918-4.226-9.861-.007-4.525 9.822-10.482 26.04-12.352 46.301l-35.931-21.768c-4.241-2.569-9.426 1.421-8.015 6.175 9.271 31.225 42.006 110.361 141.459 143.49z" fill="#e01058"/><path d="m195.425 117.451-9.014 28.289c-11.229-5.48-73.256-38.137-103.307-104.821-.804-1.782-2.318-2.802-3.956-3.08 2.411-8.695 5.275-15.875 7.726-21.191 1.947-4.224 7.953-4.234 9.859 0 33.121 73.483 98.692 100.803 98.692 100.803z" fill="#cf0e50"/><path d="m179.994 425.164s146.678-4.628 234.05 85.175c3.136 3.223 8.595 1.497 9.265-2.949l5.584-37.039 46.723 6.639c4.425.629 7.671-4.056 5.523-7.975-15.567-28.399-77.052-111.495-264.067-112.856z" fill="#e01058"/><path d="m443.606 424.167c-5.275 2.586-11.105 3.977-17.018 3.977-4.028 0-8.035-.628-11.919-1.865 0 0-60.593-19.122-103.893-29.66-14.261-3.471-29.315.126-40.453 9.683l-27.725 23.788c-36.613-5.749-62.604-4.924-62.604-4.924l37.076-69.012c120.592.876 188.986 35.747 226.536 68.013z" fill="#cf0e50"/><path d="m102.44 408.249s6.627 16.915 77.554 16.915v-82.002s-53.046 19.864-77.554 65.087z" fill="#e01058"/><path d="m179.993 343.164v50.973c-28.68 7.716-45.73 19.862-53.219 26.28-21.531-4.996-24.333-12.166-24.333-12.166 24.508-45.225 77.552-65.087 77.552-65.087z" fill="#cf0e50"/><path d="m461.492 225.431s-22.816-31.618-70.488-34.589l-55.947 102.672s105.043-14.623 126.435-68.083z" fill="#e01058"/><g><g><g><g><path d="m439.03 384.563c2.401 6.692-.807 13.285-6.219 16.222l-87.302-84.07-65.142-23.126 11.853 66.69-4.758-1.515-111.947 86.871c-6.555 5.088-15.373 2.849-19.345-3.285l53.413-102.921-.155-70.824-56.187 30.291-.032-5.38-117.201-79.619c-5.82-3.957-7.128-11.067-4.601-16.597l119.142 15.835 64.6-19.722-45.41-46.399 4.044-1.338 39.512-136.079c2.02-6.966 8.715-10.409 14.923-9.421l21.06 118.491 39.493 54.578 28.685-58.159 3.29 4.469 141.626-4.48c7.205-.221 12.534 5.016 13.565 11.171l-107.343 56.816-40.731 55.533 65.779 8.982-2.641 3.674z" fill="#fde734"/><path d="m184.008 354.02h59.939l37.499-29.099-48.61-273.502-34.288 118.103-116.73 38.707 101.727 69.107z" fill="#f3d730"/><path d="m462.372 115.078-141.625 4.475-83.97-114.124c-3.268-4.441-8.371-6.049-13.042-5.219l6.07 34.154 79.702 108.317 134.415-4.248-78.389 109.274 45.578 126.524-128.15-40.782 4.499 25.315 135.021 42.973c10.499 3.349 20.282-6.804 16.543-17.172l-48.024-133.311 82.591-115.134c6.428-8.957-.202-21.391-11.219-21.042z" fill="#f3d730"/><g><g><path d="m473.593 136.119-82.591 115.134-59.518-8.277 51.775-72.177 91.265-48.689c2.233 4.181 2.286 9.526-.931 14.009z" fill="#fca62f"/><path d="m365.533 247.707.002.009 25.467 3.537 82.591-115.134c3.217-4.483 3.164-9.828.932-14.009l-30.602 16.323z" fill="#fb9927"/><path d="m436.093 398.291c-3.286 3.414-8.356 5.119-13.61 3.445l-135.021-42.973-10.516-59.163 84.64 26.94z" fill="#fca62f"/><path d="m436.093 398.291c-3.286 3.414-8.356 5.119-13.61 3.446l-135.021-42.973-4.499-25.315 128.141 40.783.009-.002z" fill="#fb9927"/><path d="m217.067 187.362-84.306 27.958-102.453-14.259c.655-4.694 3.754-9.055 8.985-10.789l134.493-44.6z" fill="#fca62f"/><path d="m217.067 187.359-84.306 27.958-50.928-7.086 116.713-38.711z" fill="#fb9927"/><path d="m320.747 119.553-26.265 54.049-52.647-71.549-18.1-101.843c4.67-.83 9.774.778 13.042 5.219z" fill="#fca62f"/><path d="m320.747 119.553-11.24 23.128-79.702-108.317-6.07-34.154c4.67-.83 9.774.778 13.042 5.219z" fill="#fb9927"/></g></g><path d="m206.234 265.233-73.474-49.915 84.311-27.958 24.765-85.303 52.643 71.545 88.781-2.806-51.775 72.176 30.103 83.568-84.642-26.938-70.176 54.454z" fill="#27e19d"/><path d="m331.485 242.975 30.101 83.565-84.64-26.94-70.173 54.456-.278-46.521c92.61-29.415 108.855-88.12 105.01-134.47l71.755-2.266z" fill="#26d192"/></g></g><path d="m206.236 265.236.535 88.81.002.009-45.22 93.031c-4.27-2.071-7.448-6.37-7.483-11.875l-.854-141.695z" fill="#fca62f"/><path d="m206.771 354.02-.536-88.787-22.687 12.106.458 76.681z" fill="#fb9927"/></g><g><path d="m287.462 358.771-36.994 28.711c-4.687-.237-9.292-.361-13.815-.361-37.21 0-64.324 7.86-82.775 16.4l-.412-68.744c41.887-8.19 92.943-11.837 154.146-10.848z" fill="#f3d730"/><g><g><path d="m206.768 354.042v.01l-18.502 38.055c-13.753 3.039-25.157 7.139-34.387 11.414v-.01l-.659-110.003 53.013-28.278z" fill="#fb9927"/></g></g></g></g><g><path d="m471.402 311.936c.904 7.895-2.588 15.631-9.076 20.219-22.184 15.688-80.303 46.667-179.622 32.596-128.984-18.274-180.264 43.498-180.264 43.498l-10.04-87.637c-.83-7.242 2.006-14.444 7.617-19.097 19.557-16.22 72.755-49.079 171.423-35.101 130.701 18.517 190.053-40.983 190.053-40.983z" fill="#fb3a82"/><path d="m462.325 332.151c-14.227 10.055-43.216 26.393-88.369 33.12 67.23-19.821 67.147-92.222 63.861-123.107 15.968-9.004 23.674-16.73 23.674-16.73l9.91 86.504c.906 7.892-2.586 15.629-9.076 20.213z" fill="#fb1466"/></g></g></svg>