<svg xmlns="http://www.w3.org/2000/svg" viewBox="0 0 9 17" width="50" height="94">
	<style>
		tspan { white-space:pre }
		.shp0 { fill: #45a6de } 
	</style>
	<path id="Layer" fill-rule="evenodd" class="shp0" d="M7.18 3.07C7.67 3.05 8.15 3.06 8.64 3.06C8.7 3.06 8.76 3.06 8.84 3.06L8.84 0.54C8.58 0.51 8.31 0.48 8.04 0.46C7.54 0.44 7.04 0.42 6.54 0.43C5.79 0.45 5.07 0.63 4.44 1.08C3.72 1.6 3.33 2.32 3.17 3.18C3.11 3.54 3.1 3.9 3.09 4.26C3.07 4.83 3.08 5.4 3.08 5.96L3.08 6.17L0.67 6.17L0.67 8.99L3.07 8.99L3.07 16.06L6 16.06L6 9L8.39 9C8.51 8.06 8.63 7.14 8.76 6.17C8.56 6.17 8.39 6.17 8.22 6.17C7.54 6.17 5.98 6.17 5.98 6.17C5.98 6.17 5.99 4.78 6 4.17C6.03 3.34 6.52 3.09 7.18 3.07Z" />
</svg>