<svg xmlns="http://www.w3.org/2000/svg" viewBox="0 0 15 15" width="50" height="50">
	<style>
		tspan { white-space:pre }
		.shp0 { fill: #45a6de } 
	</style>
	<path id="Layer" fill-rule="evenodd" class="shp0" d="M14.64 2.35L14.64 12.14C14.64 13.37 13.64 14.37 12.41 14.37L2.62 14.37C1.39 14.37 0.39 13.37 0.39 12.14L0.39 2.35C0.39 1.12 1.39 0.12 2.62 0.12L12.41 0.12C13.64 0.12 14.64 1.12 14.64 2.35ZM10.57 3.8C10.57 4.02 10.74 4.2 10.96 4.2L12.68 4.2C12.9 4.2 13.08 4.02 13.08 3.8L13.08 2.08C13.08 1.87 12.9 1.69 12.68 1.69L10.96 1.69C10.74 1.69 10.57 1.86 10.57 2.08L10.57 3.8ZM4.69 7.24C4.69 8.8 5.96 10.06 7.52 10.06C9.07 10.06 10.34 8.8 10.34 7.24C10.34 6.88 10.27 6.53 10.14 6.22C9.73 5.17 8.71 4.42 7.52 4.42C6.32 4.42 5.3 5.17 4.89 6.22C4.76 6.53 4.69 6.88 4.69 7.24ZM13.13 12.14L13.13 6.22L11.72 6.22C11.8 6.54 11.85 6.89 11.85 7.24C11.85 9.64 9.91 11.57 7.51 11.57C5.12 11.57 3.18 9.64 3.18 7.24C3.18 6.89 3.23 6.54 3.31 6.22L1.9 6.22L1.9 12.14C1.9 12.54 2.22 12.86 2.62 12.86L12.41 12.86C12.81 12.86 13.13 12.54 13.13 12.14L13.13 12.14Z" />
</svg>