<?xml version="1.0" encoding="iso-8859-1"?>
<!-- Generator: Adobe Illustrator 19.0.0, SVG Export Plug-In . SVG Version: 6.00 Build 0)  -->
<svg version="1.1" id="Capa_1" xmlns="http://www.w3.org/2000/svg" xmlns:xlink="http://www.w3.org/1999/xlink" x="0px" y="0px"
	 viewBox="0 0 480 480" style="enable-background:new 0 0 480 480;" xml:space="preserve">
<g>
	<path style="fill:#5A6570;" d="M4,280.544C4.021,312.781,28.016,339.97,60,344V217.096C28.019,221.125,4.025,248.31,4,280.544z"/>
	<path style="fill:#5A6570;" d="M140,248h-16.92C113.01,230.97,95.629,219.556,76,217.08V344
		c19.863-2.489,37.416-14.129,47.44-31.456V312H140V248z"/>
</g>
<path style="fill:#F4D8C3;" d="M388.968,135.032c-9.374-9.371-24.57-9.369-33.941,0.005c-4.498,4.499-7.025,10.601-7.027,16.963
	v53.256c0.038-17.585-14.186-31.871-31.771-31.909c-2.947-0.006-5.881,0.396-8.717,1.197c-5.336,1.415-10.209,4.201-14.136,8.08
	L288.8,187.2c-0.92-1.088-1.864-2.16-2.88-3.2c-18.674-18.747-49.01-18.806-67.758-0.132c-6.141,6.117-10.507,13.785-12.634,22.188
	H204V128c0-13.255-10.745-24-24-24s-24,10.745-24,24v183.264c0.001,28.941,10.353,56.928,29.184,78.904l7.936,9.256
	c7.222,8.421,15.567,15.81,24.8,21.96L252,444.12V480h112v-41.944c20.491-20.489,32.002-48.279,32-77.256V152
	C395.999,145.635,393.469,139.532,388.968,135.032L388.968,135.032z"/>
<g>
	<path style="fill:#F8C09C;" d="M388.968,135.032c-6.543-6.532-16.262-8.712-24.968-5.6c9.614,3.322,16.047,12.396,16,22.568v208.8
		c0,28.974-11.511,56.761-32,77.248V480h16v-41.944c20.491-20.489,32.002-48.279,32-77.256V152
		C395.999,145.635,393.469,139.532,388.968,135.032L388.968,135.032z"/>
	<path style="fill:#F8C09C;" d="M180.968,111.032c4.501,4.5,7.031,10.603,7.032,16.968v102.056h16V128
		c0.015-13.215-10.686-23.94-23.901-23.955c-2.76-0.003-5.5,0.471-8.099,1.403C175.37,106.614,178.435,108.522,180.968,111.032z"/>
</g>
<path style="fill:#D1E3EE;" d="M348,248v14.056c0,13.255-10.745,24-24,24s-24-10.745-24-24c0,13.255-10.745,24-24,24
	s-24-10.745-24-24V248H124v64h312v-64H348z"/>
<path style="fill:#5A6570;" d="M468,312h-32c-4.418,0-8-3.582-8-8s3.582-8,8-8h32c4.418,0,8,3.582,8,8S472.418,312,468,312z"/>
<g>
	<path style="fill:#2276BB;" d="M412,48h-16V32c0-4.418-3.582-8-8-8s-8,3.582-8,8v16h-16c-4.418,0-8,3.582-8,8s3.582,8,8,8h16v16
		c0,4.418,3.582,8,8,8s8-3.582,8-8V64h16c4.418,0,8-3.582,8-8S416.418,48,412,48z"/>
	<path style="fill:#2276BB;" d="M228,24h-16V8c0-4.418-3.582-8-8-8s-8,3.582-8,8v16h-16c-4.418,0-8,3.582-8,8s3.582,8,8,8h16v16
		c0,4.418,3.582,8,8,8s8-3.582,8-8V40h16c4.418,0,8-3.582,8-8S232.418,24,228,24z"/>
</g>
<g>
	<path style="fill:#88D0EF;" d="M52,40h32V10.096c-10.484-2.795-21.516-2.795-32,0V40z"/>
	<path style="fill:#88D0EF;" d="M132,72c-0.02-5.4-0.724-10.777-2.096-16H100v32h29.904C131.276,82.777,131.98,77.4,132,72z"/>
	<path style="fill:#88D0EF;" d="M52,56h32v32H52V56z"/>
	<path style="fill:#88D0EF;" d="M100,40h23.368c-5.62-9.692-13.676-17.748-23.368-23.368V40z"/>
	<path style="fill:#88D0EF;" d="M36,56H6.096c-2.795,10.484-2.795,21.516,0,32H36V56z"/>
	<path style="fill:#88D0EF;" d="M100,104v23.368c9.692-5.62,17.748-13.676,23.368-23.368H100z"/>
	<path style="fill:#88D0EF;" d="M84,104H52v29.904c10.484,2.795,21.516,2.795,32,0V104z"/>
	<path style="fill:#88D0EF;" d="M36,40V16.632C26.308,22.252,18.252,30.308,12.632,40H36z"/>
	<path style="fill:#88D0EF;" d="M36,104H12.632c5.62,9.692,13.676,17.748,23.368,23.368V104z"/>
</g>
<g>
	<path style="fill:#2BB3CE;" d="M188,480c-2.563,0.003-4.973-1.223-6.48-3.296l-64-88c-2.598-3.574-1.806-8.578,1.768-11.176
		s8.578-1.806,11.176,1.768l64,88c2.598,3.574,1.807,8.577-1.767,11.175C191.332,479.463,189.688,479.999,188,480L188,480z"/>
	<path style="fill:#2BB3CE;" d="M140,480c-2.122,0-4.156-0.844-5.656-2.344l-24-24c-3.069-3.178-2.982-8.242,0.196-11.312
		c3.1-2.994,8.015-2.994,11.116,0l24,24c3.124,3.125,3.123,8.19-0.002,11.314C144.155,479.157,142.121,480,140,480L140,480z"/>
	<path style="fill:#2BB3CE;" d="M92,432c-2.122,0-4.156-0.844-5.656-2.344l-8-8c-3.07-3.178-2.982-8.242,0.196-11.312
		c3.1-2.995,8.016-2.995,11.116,0l8,8c3.124,3.125,3.123,8.19-0.002,11.314C96.155,431.157,94.121,432,92,432z"/>
	<path style="fill:#2BB3CE;" d="M396,480c-4.418-0.001-7.999-3.583-7.998-8.002c0-2.121,0.843-4.154,2.342-5.654l48-48
		c3.178-3.07,8.242-2.982,11.312,0.196c2.995,3.1,2.995,8.016,0,11.116l-48,48C400.156,479.156,398.122,480,396,480z"/>
	<path style="fill:#2BB3CE;" d="M460,416c-4.418-0.001-7.999-3.583-7.998-8.002c0-2.121,0.843-4.154,2.342-5.654l8-8
		c3.178-3.07,8.242-2.982,11.312,0.196c2.995,3.1,2.995,8.016,0,11.116l-8,8C464.156,415.156,462.122,416,460,416z"/>
	<path style="fill:#2BB3CE;" d="M444,480c-4.418,0.005-8.004-3.572-8.01-7.99c-0.003-2.678,1.334-5.18,3.562-6.666l24-16
		c3.676-2.452,8.644-1.46,11.096,2.216s1.46,8.644-2.216,11.096l-24,16C447.12,479.531,445.578,479.999,444,480z"/>
	<path style="fill:#2BB3CE;" d="M84,480c-0.859,0.001-1.713-0.137-2.528-0.408l-24-8c-4.197-1.396-6.468-5.931-5.072-10.128
		c1.396-4.197,5.931-6.468,10.128-5.072l0,0l24,8c4.202,1.366,6.501,5.879,5.135,10.081C90.586,477.788,87.486,480.024,84,480z"/>
</g>
<g>
	<path style="fill:#EC7422;" d="M268,104c-8.837,0-16-7.163-16-16s7.163-16,16-16s16,7.163,16,16S276.837,104,268,104z"/>
	<path style="fill:#EC7422;" d="M36,192c-8.837,0-16-7.163-16-16s7.163-16,16-16s16,7.163,16,16S44.837,192,36,192z"/>
</g>
<g>
	<path style="fill:#F8C09C;" d="M285.944,184c-12.446-12.381-30.678-16.943-47.488-11.88c25.528,1.141,45.617,22.207,45.544,47.76
		v42.176c0.093,9.122-5.117,17.468-13.352,21.392c12.871,2.996,25.734-5.01,28.729-17.881c0.416-1.786,0.625-3.613,0.623-5.447
		v-42.176C300.002,205.213,294.945,193.003,285.944,184z"/>
	<path style="fill:#F8C09C;" d="M338.624,182.624c-8.153-8.11-20.043-11.198-31.112-8.08c-1.064,0.296-2.112,0.672-3.152,1.064
		c6.914,0.877,13.339,4.029,18.264,8.96C328.628,190.57,332,198.711,332,207.2v54.856c0.093,9.122-5.117,17.468-13.352,21.392
		c12.871,2.996,25.734-5.01,28.729-17.881c0.416-1.786,0.625-3.613,0.623-5.447v-54.864
		C348,196.767,344.628,188.626,338.624,182.624z"/>
</g>
<path style="fill:#A9BFD1;" d="M124,296h312v16H124V296z"/>
<path style="fill:#F8C09C;" d="M172,312v8c0,13.255,10.745,24,24,24v-24l8-8H172z"/>
<path style="fill:#F4D8C3;" d="M204,392c-5.297-15.896-7.998-32.541-8-49.296V320c0-13.255,10.745-24,24-24s24,10.745,24,24v40
	l38.544,22.024c11.383,6.505,20.586,16.233,26.448,27.96c4.608,9.218,7.008,19.382,7.008,29.688V456h-48L204,392z"/>
<path style="fill:#F8C09C;" d="M308.992,409.984c-5.862-11.727-15.065-21.455-26.448-27.96L244,360v-40c0-13.255-10.745-24-24-24
	c-1.342,0.023-2.68,0.157-4,0.4c11.524,1.948,19.969,11.913,20,23.6v40l38.544,22.024c20.687,11.822,33.455,33.821,33.456,57.648
	V456h8v-16.328C316,429.366,313.6,419.202,308.992,409.984L308.992,409.984z"/>
<g>
</g>
<g>
</g>
<g>
</g>
<g>
</g>
<g>
</g>
<g>
</g>
<g>
</g>
<g>
</g>
<g>
</g>
<g>
</g>
<g>
</g>
<g>
</g>
<g>
</g>
<g>
</g>
<g>
</g>
</svg>
