<?xml version="1.0" encoding="utf-8"?>
<!-- Generator: Adobe Illustrator 16.0.3, SVG Export Plug-In . SVG Version: 6.00 Build 0)  -->
<!DOCTYPE svg PUBLIC "-//W3C//DTD SVG 1.1//EN" "http://www.w3.org/Graphics/SVG/1.1/DTD/svg11.dtd">
<svg version="1.1" id="Capa_1" xmlns="http://www.w3.org/2000/svg" xmlns:xlink="http://www.w3.org/1999/xlink" x="0px" y="0px"
	 width="800px" height="800px" viewBox="0 0 800 800" enable-background="new 0 0 800 800" xml:space="preserve">
<g>
	<path fill="#CC4B4C" d="M151.724,0h496.552c30.47,0,55.172,24.702,55.172,55.172V179.31H96.552V55.172
		C96.552,24.702,121.253,0,151.724,0z"/>
	<path fill="#802F34" d="M234.483,55.172h331.035c15.235,0,27.586,12.35,27.586,27.586v41.38H206.897V82.759
		C206.897,67.523,219.247,55.172,234.483,55.172z"/>
	<path fill="#CC4B4C" d="M96.552,386.206v234.483l36.834,75.029c2.33,4.734,7.148,7.732,12.427,7.729h508.375
		c5.276,0.003,10.097-2.993,12.427-7.729l36.834-75.029V386.206H96.552z"/>
	<path fill="#802F34" d="M703.448,620.689l-36.834,75.029c-2.33,4.734-7.15,7.732-12.427,7.729H145.813
		c-5.276,0.003-10.097-2.993-12.427-7.729l-36.834-75.029H703.448z"/>
	<g>
		<path fill="#5E5F62" d="M151.724,703.448h110.345v68.966c0,15.236-12.35,27.586-27.586,27.586h-55.172
			c-15.236,0-27.586-12.352-27.586-27.586v-68.966H151.724z"/>
		<path fill="#5E5F62" d="M537.932,703.448h110.345v68.966c0,15.236-12.35,27.586-27.586,27.586h-55.172
			c-15.235,0-27.586-12.352-27.586-27.586L537.932,703.448L537.932,703.448z"/>
	</g>
	<path fill="#F0C419" d="M262.069,537.932c-0.111,15.188-12.397,27.477-27.586,27.586h-82.759v-55.172h82.759
		C249.7,510.389,262.025,522.714,262.069,537.932z"/>
	<rect x="648.276" y="510.346" fill="#F29C1F" width="55.172" height="55.172"/>
	<path fill="#F0C419" d="M537.932,537.932c0.11,15.188,12.396,27.477,27.586,27.586h82.759v-55.172h-82.759
		C550.3,510.389,537.975,522.714,537.932,537.932z"/>
	<g>
		<rect x="675.862" y="206.897" fill="#BDC3C7" width="96.552" height="96.551"/>
		<rect x="27.586" y="206.897" fill="#BDC3C7" width="96.552" height="96.551"/>
	</g>
	<rect x="96.552" y="124.138" fill="#84B5CB" width="606.896" height="317.24"/>
	<g>
		<path fill="#5E5F62" d="M13.794,179.311H41.38c7.617,0,13.793,6.175,13.793,13.793v124.138c0,7.617-6.175,13.794-13.793,13.794
			H13.794C6.177,331.036,0,324.861,0,317.242V193.104C0,185.486,6.175,179.311,13.794,179.311z"/>
		<path fill="#5E5F62" d="M786.206,331.034H758.62c-7.617,0-13.794-6.175-13.794-13.793V193.103c0-7.617,6.176-13.793,13.794-13.793
			h27.586c7.617,0,13.794,6.175,13.794,13.793v124.138C800,324.859,793.825,331.034,786.206,331.034z"/>
	</g>
	<rect x="96.552" y="510.346" fill="#F29C1F" width="55.172" height="55.172"/>
	<g>
		<path fill="#FFFFFF" d="M579.311,193.103h-68.965c-7.617,0-13.794-6.175-13.794-13.793c0-7.619,6.175-13.794,13.794-13.794h68.965
			c7.617,0,13.794,6.175,13.794,13.794C593.104,186.928,586.928,193.103,579.311,193.103z"/>
		<path fill="#FFFFFF" d="M648.276,193.103h-13.794c-7.617,0-13.793-6.175-13.793-13.793c0-7.619,6.175-13.794,13.793-13.794h13.794
			c7.617,0,13.794,6.175,13.794,13.794C662.07,186.928,655.894,193.103,648.276,193.103z"/>
	</g>
</g>
<g>
	<path fill-rule="evenodd" clip-rule="evenodd" fill="#FFFFFF" d="M356.881,465.384c33.137,0,66.2,0,99.286,0
		c0.379,0.025,0.708,0.128,1.064,0.128c8.075,0.075,16.175,0.203,24.226,0.253c4.697,0.025,9.089,1.041,13.001,3.734
		c7.135,4.926,11.4,11.604,11.832,20.414c0.256,5.839,0.278,11.654,0.483,17.495c0.073,1.144-0.28,1.906-1.118,2.666
		c-6.628,6.044-13.128,12.113-19.654,18.18c-1.472,1.374-1.422,1.068,0.025,2.415c6.194,5.635,12.366,11.323,18.664,16.858
		c1.499,1.271,2.056,2.59,2.031,4.546c-0.051,6.779-0.432,13.482-2.313,20.086c-2.182,7.491-6.372,13.482-13.051,17.62
		c-2.36,1.5-4.848,2.845-7.72,3.022c-3.96,0.205-7.869,0.434-11.832,0.434c-22.826,0.05-45.578,0.05-68.405,0.075
		c-1.168,0-2.487,0.304-3.455-0.128c-1.041-0.431-1.751-1.55-2.563-2.412c-0.304-0.329-0.532-0.838-0.532-1.27
		c-0.104-5.382-0.127-10.791-0.155-16.173c-0.125-26.968-0.278-53.96-0.429-80.952c0-0.432,0-0.888,0-1.345
		c-0.229-0.052-0.333-0.077-0.483-0.077c-5.638,0.05-11.248,0.025-16.886,0.178c-3.226,0.075-5.537,2.538-5.638,5.738
		c-0.15,4.875-0.306,9.751-0.306,14.576c-0.073,27.143-0.073,54.313-0.101,81.458c0,0.254,0.05,0.481,0.05,0.76
		c-1.294,0-2.588,0-3.909,0c-1.219-0.125-2.463-0.278-3.682-0.354c-4.725-0.355-8.66-2.284-11.682-5.941
		c-2.232-2.666-3.679-5.612-3.732-9.193c-0.025-3.835-0.253-7.642-0.253-11.501c-0.178-24.937-0.279-49.922-0.406-74.883
		c0-0.382,0-0.737,0-1.294c-5.944,0.203-11.732,0.278-17.521,0.609c-3.556,0.203-5.612,2.563-5.715,6.144
		c-0.126,4.801-0.304,9.648-0.304,14.474c-0.075,27.093-0.075,54.188-0.075,81.255c0,0.229,0.05,0.457,0.05,0.685
		c-1.372,0-2.743,0-4.09,0c-1.37-0.125-2.739-0.278-4.063-0.354c-8.125-0.509-14.854-8.178-14.854-15.464
		c0-3.935-0.178-7.896-0.278-11.859c0-0.355-0.05-0.763-0.101-1.142c0-19.172,0-38.343,0-57.487c0.05-0.406,0.101-0.788,0.101-1.194
		c0.027-3.1,0.027-6.247,0.127-9.369c0.078-3.125-0.027-6.297,0.432-9.369c0.837-5.207,3.047-9.929,6.553-13.916
		c2.767-3.072,6.094-5.207,10.104-6.323c3.81-1.065,7.667-1.371,11.554-1.422c7.288-0.101,14.551-0.152,21.813-0.253
		C354.292,465.512,355.586,465.437,356.881,465.384z M449.155,567.563c0,0.077,0,0.152,0,0.229c8.254,0,16.507,0,24.71,0
		c0.43,0,0.938-0.128,1.27-0.406c0.913-0.763,1.826-1.575,2.639-2.488c1.271-1.297,2.54-2.666,2.643-4.547
		c0.201-4.313,0.304-8.683,0.406-13.023c0.023-0.813-0.103-1.652-0.256-2.438c-0.178-1.271-1.115-2.059-1.98-2.794
		c-0.406-0.331-1.191-0.256-1.804-0.278c-7.614,0-15.232,0.05-22.824-0.027c-4.368-0.025-8.71-0.15-13.054-0.304
		c-1.75-0.103-1.777-0.253-1.929-2.006v-0.078c0-6.626-0.05-13.254,0-19.854c0.051-0.94,0.607-1.856,0.964-2.77
		c0.256-0.609,0.712-0.734,1.347-0.734c9.444,0.022,18.816,0.022,28.261-0.027c2.997-0.025,5.967-0.178,9.016-0.278
		c1.676-0.078,1.877-0.278,2.004-1.932c0.153-1.219,0.256-2.41,0.256-3.604c-0.077-4.19-0.077-8.379-0.278-12.595
		c-0.104-2.49-3.149-6.4-6.375-6.525c-1.169-0.078-2.335-0.256-3.503-0.281c-14.729-0.024-29.48-0.024-44.262,0.025
		c-1.014,0-2.082,0.128-3.122,0.331c-1.242,0.253-2.616,1.728-2.616,2.719c0,20.389,0,40.778,0.027,61.142
		c0,3.072,0.201,6.145,0.304,9.194c0.075,1.191,0.509,2.081,1.6,2.741c1.119,0.687,2.36,0.584,3.557,0.584
		C433.795,567.588,441.489,567.563,449.155,567.563z"/>
</g>
</svg>
