<?xml version="1.0" encoding="utf-8"?>
<!-- Generator: Adobe Illustrator 16.0.3, SVG Export Plug-In . SVG Version: 6.00 Build 0)  -->
<!DOCTYPE svg PUBLIC "-//W3C//DTD SVG 1.1//EN" "http://www.w3.org/Graphics/SVG/1.1/DTD/svg11.dtd">
<svg version="1.1" id="Capa_1" xmlns="http://www.w3.org/2000/svg" xmlns:xlink="http://www.w3.org/1999/xlink" x="0px" y="0px"
	 width="512px" height="512px" viewBox="0 0 512 512" enable-background="new 0 0 512 512" xml:space="preserve">
<g>
	<path fill="#96A1B6" d="M469.476,497.565l-114.878-65.645l-7.666,13.417l35.531,20.304H129.537l35.531-20.304l-7.666-13.417
		L42.525,497.565c-3.042,1.737-4.534,5.305-3.634,8.691c0.899,3.386,3.965,5.743,7.468,5.743h419.283
		c3.503,0,6.568-2.357,7.468-5.743C474.009,502.87,472.518,499.303,469.476,497.565L469.476,497.565z M75.453,496.547l27.042-15.452
		h307.01l27.043,15.452H75.453z"/>
	<path fill="#3C3366" d="M326.567,388.379l61.811,61.811h23.18c4.267,0,7.726-3.46,7.726-7.727v-54.084H326.567z"/>
	<path fill="#584C91" d="M92.716,388.379v54.084c0,4.267,3.459,7.727,7.727,7.727h287.935v-61.811H92.716z"/>
	<path fill="#D12035" d="M372.926,0h-30.905l61.811,419.283h23.179c4.268,0,7.727-3.459,7.727-7.727V61.811
		C434.736,27.815,406.922,0,372.926,0z"/>
	<path fill="#FF2942" d="M342.021,0H139.074c-33.996,0-61.811,27.815-61.811,61.811v349.746c0,4.268,3.459,7.727,7.726,7.727
		h318.841v-61.811l-15.453-15.453l15.453-15.452v-30.905l-61.811-116.926l61.811-116.925C403.831,27.815,376.016,0,342.021,0z"/>
	<path fill="#3C3366" d="M403.831,264.756v30.906h-30.905l-61.812-92.716L403.831,264.756z"/>
	<path fill="#3C3366" d="M372.926,30.905h-30.905v154.527l61.811-92.716V61.811C403.831,44.771,389.965,30.905,372.926,30.905z"/>
	<path fill="#584C91" d="M342.021,30.905H139.074c-17.039,0-30.905,13.866-30.905,30.906v30.905l77.839,101.473l-77.839,70.567
		v30.906h264.757V61.811C372.926,44.771,359.06,30.905,342.021,30.905z"/>
	<path fill="#95E1E1" d="M403.831,92.716v172.04h-30.905l-61.812-86.02l61.812-86.02H403.831z"/>
	<path fill="#B2FFFF" d="M372.926,92.716v172.04H256l-61.811-86.02L256,92.716H372.926z"/>
	<path fill="#FFFFFF" d="M108.169,92.716H256v172.04H108.169V92.716z"/>
	<path fill="#FFFFFF" d="M108.169,326.567v30.905h61.811c17.069,0,30.905-13.836,30.905-30.905H108.169z"/>
	<path fill="#C3FFBF" d="M372.926,357.473h30.905v-30.905h-30.905l-15.453,15.452L372.926,357.473z"/>
	<path fill="#FFFFFF" d="M311.114,326.567c0,17.069,13.837,30.905,30.906,30.905h30.905v-30.905H311.114z"/>
</g>
</svg>
