<?xml version="1.0" encoding="utf-8"?>
<!-- Generator: Adobe Illustrator 16.0.3, SVG Export Plug-In . SVG Version: 6.00 Build 0)  -->
<!DOCTYPE svg PUBLIC "-//W3C//DTD SVG 1.1//EN" "http://www.w3.org/Graphics/SVG/1.1/DTD/svg11.dtd">
<svg version="1.1" id="Capa_1" xmlns="http://www.w3.org/2000/svg" xmlns:xlink="http://www.w3.org/1999/xlink" x="0px" y="0px"
	 width="512px" height="512px" viewBox="0 0 512 512" enable-background="new 0 0 512 512" xml:space="preserve">
<g>
	<g>
		<path fill="#FEDF74" d="M362.797,191.234c8.493-10.149,7.977-25.283-1.56-34.82c-4.227-4.226-9.554-6.675-15.059-7.36
			c-0.685-5.505-3.134-10.832-7.359-15.058c-10.088-10.088-26.445-10.088-36.533,0c-7.8,7.801-9.563,19.346-5.302,28.846
			c-1.812,1.077-3.52,2.393-5.077,3.951c-6.628,6.627-8.9,15.958-6.821,24.441H362.797z"/>
		<path fill="#FED402" d="M238.754,164.956c-0.483,1.899-0.741,3.888-0.741,5.937c0,8.57,4.491,16.087,11.244,20.34h25.567
			c6.753-4.253,11.242-11.77,11.242-20.34c0-2.049-0.258-4.038-0.74-5.937c9.051-3.445,15.484-12.198,15.484-22.458
			c0-13.27-10.756-24.027-24.026-24.027c-5.56,0-10.673,1.893-14.744,5.063c-4.071-3.169-9.185-5.063-14.744-5.063
			c-13.27,0-24.027,10.757-24.027,24.027C223.269,152.758,229.703,161.511,238.754,164.956L238.754,164.956z"/>
		<path fill="#FEF0AE" d="M181.632,171.347c0.088,1.958,0.417,3.936,1.011,5.897c1.873,6.187,6.019,11.059,11.245,13.989h23.516
			c9.624-5.393,14.561-16.915,11.233-27.909c-0.594-1.962-1.417-3.79-2.429-5.468c7.665-5.919,11.288-16.16,8.315-25.981
			c-3.844-12.701-17.256-19.881-29.957-16.037c-5.321,1.61-9.667,4.904-12.645,9.116c-4.815-1.854-10.258-2.185-15.578-0.575
			c-12.701,3.844-19.881,17.256-16.037,29.957C163.278,164.158,171.971,170.672,181.632,171.347z"/>
		<g>
			<path fill="#FEDF74" d="M191.563,191.234c7.773-9.438,7.252-23.416-1.572-32.24c-9.383-9.383-24.596-9.383-33.979,0
				c-0.436,0.436-0.845,0.889-1.24,1.349c-8.707-3.597-19.098-1.861-26.175,5.216c-6.943,6.943-8.734,17.073-5.402,25.676
				L191.563,191.234L191.563,191.234z"/>
		</g>
		<g>
			<path fill="#FED402" d="M145.571,165.558c2.493-2.493,5.401-4.308,8.498-5.476c-8.559-3.225-18.583-1.412-25.472,5.476
				c-6.943,6.943-8.734,17.073-5.402,25.676h16.974C136.837,182.631,138.628,172.501,145.571,165.558z"/>
		</g>
		<g>
			<path fill="#FFFFFF" d="M257.229,191.234c7.773-9.438,7.252-23.416-1.571-32.24c-9.383-9.383-24.596-9.383-33.979,0
				c-0.436,0.436-0.845,0.889-1.24,1.349c-8.707-3.597-19.098-1.861-26.175,5.216c-6.943,6.943-8.734,17.073-5.402,25.676
				L257.229,191.234L257.229,191.234z"/>
		</g>
		<g>
			<path fill="#EAF6FF" d="M206.026,165.558c3.187-3.187,7.047-5.28,11.121-6.302c-7.931-2-16.682,0.098-22.885,6.302
				c-6.943,6.943-8.734,17.073-5.402,25.676h11.764C197.293,182.631,199.083,172.501,206.026,165.558z"/>
		</g>
		<g>
			<path fill="#FEF0AE" d="M326.461,191.234c2.031-3.525,3.195-7.613,3.195-11.974c0-13.27-10.757-24.027-24.027-24.027
				c-5.559,0-10.673,1.893-14.744,5.063c-4.07-3.169-9.185-5.063-14.744-5.063c-13.27,0-24.026,10.757-24.026,24.027
				c0,4.361,1.164,8.449,3.195,11.974H326.461z"/>
		</g>
		<g>
			<path fill="#FEDF74" d="M283.563,156.421c-2.338-0.761-4.828-1.188-7.422-1.188c-13.27,0-24.027,10.757-24.027,24.027
				c0,4.361,1.164,8.449,3.195,11.974h14.886c-2.031-3.525-3.195-7.613-3.195-11.974C267,168.597,273.949,159.561,283.563,156.421
				L283.563,156.421z"/>
		</g>
	</g>
	<g>
		<path fill="#FEF0AE" d="M214.504,3.998c-11.063-7.328-25.972-4.299-33.299,6.764c-3.07,4.635-4.315,9.944-3.921,15.088
			c-4.89,1.644-9.293,4.862-12.362,9.497c-7.327,11.063-4.299,25.972,6.764,33.299c8.344,5.526,18.873,5.159,26.689-0.099
			c0.479,0.372,0.97,0.734,1.484,1.075c11.063,7.327,25.972,4.299,33.299-6.764c7.327-11.063,4.299-25.972-6.764-33.299
			c-0.514-0.341-1.039-0.651-1.569-0.947C226.617,19.362,222.847,9.524,214.504,3.998L214.504,3.998z"/>
	</g>
	<path fill="#FEDF74" d="M177.998,41.347c3.07-4.635,7.472-7.853,12.362-9.497c-0.395-5.144,0.851-10.453,3.921-15.088
		c5.216-7.876,14.274-11.675,23.052-10.569c-0.876-0.789-1.817-1.525-2.829-2.195c-11.063-7.328-25.972-4.299-33.299,6.764
		c-3.07,4.635-4.315,9.943-3.921,15.088c-4.891,1.644-9.293,4.862-12.362,9.497c-7.327,11.063-4.299,25.972,6.764,33.299
		c3.186,2.11,6.691,3.355,10.241,3.802C173.232,64.617,171.342,51.396,177.998,41.347z"/>
	<g>
		<path fill="#FEDF74" d="M424.464,83.263c-2.642-13.004-15.325-21.405-28.329-18.763c-5.448,1.107-10.082,3.98-13.44,7.896
			c-4.62-2.296-10.01-3.133-15.457-2.026c-13.004,2.642-21.405,15.325-18.764,28.329c1.992,9.808,9.697,16.993,18.942,18.802
			c0.076,0.602,0.167,1.205,0.289,1.809c2.642,13.004,15.325,21.405,28.329,18.763c13.004-2.642,21.405-15.325,18.763-28.329
			c-0.123-0.604-0.273-1.195-0.438-1.779C422.166,102.693,426.457,93.071,424.464,83.263z"/>
	</g>
	<g>
		<path fill="#FED402" d="M380.717,112.296c-0.123-0.604-0.214-1.207-0.289-1.809c-9.245-1.809-16.95-8.994-18.941-18.802
			c-1.626-8.007,0.938-15.888,6.18-21.383c-0.143,0.026-0.285,0.039-0.428,0.068c-13.004,2.642-21.405,15.325-18.764,28.329
			c1.992,9.808,9.697,16.993,18.942,18.802c0.076,0.602,0.167,1.205,0.289,1.809c2.642,13.004,15.325,21.405,28.329,18.763
			c4.993-1.014,9.303-3.513,12.574-6.938C395.76,133.504,383.329,125.154,380.717,112.296z"/>
	</g>
	<g>
		<circle fill="#FEF0AE" cx="301.328" cy="55.115" r="18.543"/>
	</g>
	<path fill="#FEDF74" d="M295.913,55.115c0-7.927,4.983-14.672,11.979-17.325c-2.043-0.775-4.25-1.218-6.563-1.218
		c-10.241,0-18.543,8.302-18.543,18.543c0,10.241,8.302,18.543,18.543,18.543c2.314,0,4.521-0.443,6.563-1.218
		C300.896,69.787,295.913,63.041,295.913,55.115z"/>
	<g>
		<circle fill="#FEDF74" cx="105.594" cy="106.624" r="18.543"/>
	</g>
	<path fill="#FED402" d="M100.913,106.624c0-7.789,4.807-14.444,11.612-17.191c-2.143-0.865-4.479-1.352-6.932-1.352
		c-10.241,0-18.543,8.302-18.543,18.543s8.302,18.543,18.543,18.543c2.453,0,4.789-0.487,6.932-1.352
		C105.721,121.068,100.913,114.412,100.913,106.624z"/>
	<g>
		<path fill="#FB2B3A" d="M113.757,224.374l23.925,202.802l2.943,0.429c70.154,10.209,141.427,10.064,211.54-0.429L376.6,224.374
			H113.757z"/>
		<path fill="#E41F2D" d="M113.757,224.374l23.925,202.802h28.002l-23.925-202.802H113.757z"/>
		<g>
			<path fill="#FFFFFF" d="M307.027,428.176l14.21-203.802H169.125l13.914,203.802H307.027z"/>
		</g>
		<g>
			<path fill="#FB2B3A" d="M245.185,262.696c8.472,0,16.52,1.794,23.806,5.002l0.962-42.325h-49.539l0.942,42.335
				C228.648,264.494,236.705,262.696,245.185,262.696z"/>
			<g>
				<path fill="#FB2B3A" d="M265.344,428.176l1.163-51.15c-6.616,2.559-13.801,3.977-21.321,3.977
					c-7.549,0-14.759-1.429-21.397-4.007l1.139,51.181H265.344z"/>
			</g>
		</g>
		<g>
			<path fill="#EAF6FF" d="M380.426,225.373H109.945c-9.704,0-17.57-7.866-17.57-17.57c0-9.704,7.866-17.57,17.57-17.57h270.481
				c9.704,0,17.57,7.866,17.57,17.57C397.995,217.507,390.129,225.373,380.426,225.373L380.426,225.373z"/>
		</g>
		<g>
			<path fill="#D8ECFE" d="M131.865,207.804c0-9.703,7.866-17.57,17.57-17.57h-39.49c-9.703,0-17.57,7.866-17.57,17.57
				c0,9.704,7.866,17.57,17.57,17.57h39.49C139.731,225.373,131.865,217.507,131.865,207.804L131.865,207.804z"/>
		</g>
		<g>
			<path fill="#FEDF74" d="M137.682,427.176l9.471,80.277c0.306,2.593,2.504,4.548,5.115,4.548h185.109
				c2.607,0,4.802-1.947,5.114-4.535l9.674-80.29H137.682z"/>
		</g>
		<g>
			<path fill="#FED402" d="M175.127,507.452l-9.471-80.277h-27.974l9.471,80.277c0.306,2.593,2.504,4.548,5.115,4.548h27.974
				C177.631,512,175.433,510.046,175.127,507.452z"/>
		</g>
		<g>
			<circle fill="#FEDF74" cx="245.185" cy="321.849" r="59.153"/>
		</g>
		<g>
			<path fill="#FED402" d="M219.596,321.85c0-26.839,17.879-49.488,42.371-56.724c-5.322-1.571-10.95-2.43-16.782-2.43
				c-32.669,0-59.153,26.483-59.153,59.153c0,32.668,26.484,59.152,59.153,59.152c5.831,0,11.459-0.857,16.782-2.43
				C237.475,371.336,219.596,348.688,219.596,321.85L219.596,321.85z"/>
		</g>
	</g>
</g>
</svg>
