<svg xmlns="http://www.w3.org/2000/svg" viewBox="0 0 30 32" width="50" height="53">
	<style>
		tspan { white-space:pre }
		.shp0 { fill: #45a6de } 
	</style>
	<path id="XMLID_86_" fill-rule="evenodd" class="shp0" d="M29.16 16.43C29.16 24.52 22.63 31.1 14.6 31.1C6.58 31.1 0.05 24.52 0.05 16.43C0.05 8.34 6.58 1.77 14.6 1.77C22.63 1.77 29.16 8.34 29.16 16.43ZM6.73 23.31C6.82 23.63 7.11 23.84 7.44 23.84C7.51 23.84 7.58 23.83 7.66 23.8C9.17 23.33 10.74 23.09 12.35 23.09C15.02 23.09 17.66 23.78 19.99 25.07C20.11 25.13 20.23 25.16 20.36 25.16C20.63 25.16 20.88 25.01 21.01 24.78C21.1 24.59 21.13 24.24 21.07 23.9C21.01 23.56 20.87 23.28 20.72 23.2C18.18 21.78 15.28 21.04 12.36 21.04C10.63 21.04 8.9 21.3 7.21 21.82C6.86 21.93 6.6 22.88 6.73 23.31ZM5.94 17.96C6.05 18.36 6.41 18.63 6.82 18.63C6.9 18.63 6.98 18.62 7.06 18.6C8.75 18.13 10.54 17.89 12.36 17.89C15.62 17.89 18.73 18.65 21.6 20.15C21.74 20.22 21.88 20.26 22.02 20.26C22.22 20.26 22.55 19.89 22.82 19.35C22.94 19.12 22.96 18.87 22.88 18.64C22.81 18.41 22.65 18.22 22.44 18.11C19.35 16.49 15.87 15.64 12.36 15.64C10.4 15.64 8.46 15.9 6.58 16.41C6.12 16.54 5.81 17.45 5.94 17.96ZM12.35 12.16C16.21 12.16 19.9 13.03 23.32 14.76C23.47 14.82 23.63 14.86 23.79 14.86C24.21 14.86 24.58 14.48 24.76 14.13C24.89 13.87 24.91 13.58 24.82 13.3C24.73 13.03 24.53 12.81 24.27 12.68C20.55 10.81 16.54 9.86 12.35 9.86C10.19 9.86 8.02 10.12 5.89 10.65C5.34 10.79 4.97 11.49 5.11 12.1C5.23 12.58 5.66 12.92 6.15 12.92C6.24 12.92 6.33 12.91 6.42 12.89C8.38 12.4 10.37 12.16 12.35 12.16Z" />
</svg>