<svg xmlns="http://www.w3.org/2000/svg" viewBox="0 0 1706 1354" width="1706" height="1354">
	<style>
		tspan { white-space:pre }
		.shp0 { fill: #6dc82a } 
		.shp1 { fill: #5eac24 } 
		.shp2 { fill: #4e901e } 
		.shp3 { fill: #91dc5a } 
		.shp4 { fill: #afb9d2 } 
		.shp5 { fill: #c7cfe2 } 
		.shp6 { fill: #8f96ac } 
		.shp7 { fill: #9fa7bf } 
		.shp8 { fill: #707487 } 
	</style>
	<g id="Layer">
		<path id="Layer" class="shp0" d="M1293.22 260.25C1288.6 265.13 1282.07 267.69 1275.36 267.28C1273.03 267.13 1217.83 263.33 1161.36 232.91C1108 204.15 1043.61 145.81 1039.87 31.13C1039.67 24.88 1042.06 18.82 1046.48 14.4C1053.23 7.65 1061.15 7.65 1064.53 7.65L1064.53 7.65C1066.92 7.65 1123.15 8.05 1181.09 42.79C1211.17 60.83 1236.18 84.81 1255.42 114.06C1278.66 149.4 1293.41 192.46 1299.26 242.04C1300.05 248.71 1297.83 255.38 1293.22 260.25Z" />
		<path id="Layer" class="shp1" d="M1256.13 115.18C1246.64 132.69 1238.64 152.41 1232.89 174.63C1227.73 190.06 1219.85 217.15 1213.34 254.64C1247.66 265.38 1273.78 267.18 1275.36 267.28C1282.07 267.69 1288.6 265.13 1293.22 260.25C1297.83 255.38 1300.05 248.71 1299.26 242.04C1293.47 192.98 1278.95 150.31 1256.13 115.18Z" />
		<path id="Layer" class="shp2" d="M1273.8 221.43L1225.05 173.89L1212.19 109.83C1211.17 104.75 1206.23 101.46 1201.15 102.48C1196.08 103.5 1192.79 108.44 1193.81 113.51L1201.27 150.71L1174.38 124.49L1161.35 59.54C1160.33 54.46 1155.39 51.18 1150.31 52.19C1145.24 53.21 1141.95 58.15 1142.97 63.23L1150.61 101.3L1087.86 40.12C1084.15 36.5 1078.22 36.58 1074.6 40.29C1070.99 43.99 1071.07 49.93 1074.77 53.54L1143.76 120.82L1095.64 120C1090.46 119.86 1086.19 124.03 1086.1 129.21C1086.02 134.39 1090.14 138.66 1095.32 138.75L1163.34 139.91L1195.34 171.12L1146.48 170.28C1141.35 170.17 1137.03 174.32 1136.94 179.5C1136.86 184.67 1140.98 188.94 1146.16 189.03L1214.91 190.2L1260.71 234.86C1262.53 236.64 1264.89 237.52 1267.25 237.52C1269.69 237.52 1272.13 236.57 1273.97 234.69C1277.58 230.98 1277.51 225.05 1273.8 221.43Z" />
		<path id="Layer" class="shp3" d="M1514.24 14.72C1509.62 9.84 1503.09 7.27 1496.38 7.69C1494.06 7.84 1438.85 11.63 1382.38 42.06C1338.99 65.44 1288.31 108.39 1268.88 185.28C1258.26 216.54 1234.87 301.32 1240.35 428.97C1240.82 440.01 1249.92 448.65 1260.87 448.64C1261.16 448.64 1261.46 448.64 1261.76 448.63C1273.11 448.14 1281.91 438.55 1281.42 427.21C1278.59 361.08 1284.03 307.02 1291.05 267.13C1306.84 266.22 1353.88 261.1 1402.12 232.18C1432.19 214.14 1457.2 190.16 1476.44 160.91C1499.69 125.57 1514.44 82.51 1520.28 32.93C1521.07 26.26 1518.86 19.59 1514.24 14.72Z" />
		<path id="Layer" class="shp1" d="M1484.72 40.29C1481.11 36.58 1475.17 36.5 1471.46 40.12L1408.72 101.3L1416.37 63.23C1417.38 58.15 1414.1 53.21 1409.02 52.19C1403.95 51.18 1399 54.46 1397.98 59.54L1384.95 124.49L1358.06 150.71L1365.52 113.51C1366.54 108.44 1363.25 103.5 1358.18 102.48C1353.1 101.46 1348.16 104.75 1347.14 109.83L1334.28 173.89L1285.53 221.44C1281.82 225.05 1281.75 230.98 1285.36 234.69C1287.2 236.58 1289.63 237.52 1292.07 237.52C1294.43 237.52 1296.8 236.64 1298.62 234.86L1344.41 190.21L1413.17 189.03C1418.35 188.94 1422.47 184.68 1422.38 179.5C1422.29 174.37 1418.11 170.28 1413.01 170.28C1412.96 170.28 1412.9 170.28 1412.85 170.28L1363.98 171.12L1395.99 139.91L1464.01 138.74C1469.19 138.66 1473.31 134.39 1473.22 129.21C1473.14 124.09 1468.95 120 1463.85 120C1463.8 120 1463.74 120 1463.69 120L1415.56 120.82L1484.55 53.54C1488.26 49.93 1488.34 43.99 1484.72 40.29Z" />
	</g>
	<g id="Layer">
		<path id="Layer" class="shp0" d="M388.45 1128.25C388.63 1134.96 385.83 1141.39 380.79 1145.85C379.05 1147.38 337.32 1183.74 275.88 1202.15C217.82 1219.55 131.03 1223.82 47.3 1145.38C42.73 1141.1 40.14 1135.13 40.14 1128.87C40.14 1119.33 45.74 1113.73 48.13 1111.34L48.13 1111.34C49.82 1109.64 89.87 1070.17 155.4 1053.77C189.42 1045.25 224.06 1044.52 258.35 1051.6C299.78 1060.16 340.65 1080.17 379.85 1111.1C385.12 1115.25 388.27 1121.54 388.45 1128.25Z" />
		<path id="Layer" class="shp1" d="M259.65 1051.89C265.32 1070.99 273.61 1090.59 285.26 1110.36C292.51 1124.92 306.1 1149.65 328 1180.76C359.87 1164.09 379.6 1146.89 380.79 1145.85C385.84 1141.39 388.64 1134.96 388.46 1128.25C388.27 1121.54 385.12 1115.25 379.85 1111.1C341.06 1080.5 300.63 1060.59 259.65 1051.89Z" />
		<path id="Layer" class="shp2" d="M347.28 1114.53L279.19 1115.38L224.79 1079.17C220.48 1076.3 214.67 1077.47 211.79 1081.78C208.92 1086.09 210.09 1091.91 214.4 1094.78L245.98 1115.8L208.43 1116.27L153.28 1079.56C148.97 1076.69 143.16 1077.87 140.28 1082.17C137.41 1086.49 138.59 1092.3 142.89 1095.17L175.22 1116.69L87.59 1117.8C82.41 1117.87 78.27 1122.11 78.33 1127.29C78.4 1132.47 82.65 1136.61 87.83 1136.55L184.18 1135.33L149.57 1168.78C145.81 1172.34 145.75 1178.31 149.34 1182.04C152.94 1185.76 158.88 1185.86 162.6 1182.27L211.52 1134.99L256.22 1134.43L221.08 1168.39C217.37 1171.94 217.25 1177.92 220.85 1181.65C224.45 1185.37 230.38 1185.47 234.11 1181.87L283.56 1134.09L347.51 1133.28C350.06 1133.25 352.35 1132.2 354.02 1130.54C355.75 1128.81 356.8 1126.42 356.77 1123.79C356.7 1118.61 352.45 1114.46 347.28 1114.53Z" />
		<path id="Layer" class="shp3" d="M371.12 798.34C364.41 798.16 357.98 800.96 353.52 806C351.99 807.75 315.63 849.47 297.22 910.91C283.07 958.13 277.61 1024.33 318.23 1092.45C332.83 1122.06 376.24 1198.54 470.37 1284.93C478.51 1292.41 491.05 1292.08 498.79 1284.33C499 1284.12 499.21 1283.91 499.41 1283.69C507.09 1275.32 506.53 1262.32 498.17 1254.64C449.4 1209.89 415.03 1167.81 391.78 1134.64C402.31 1122.84 431.95 1085.95 445.61 1031.39C454.12 997.37 454.85 962.73 447.77 928.44C439.21 887.01 419.2 846.14 388.27 806.95C384.12 801.67 377.83 798.52 371.12 798.34Z" />
		<path id="Layer" class="shp1" d="M368.33 837.29C363.15 837.23 358.9 841.38 358.84 846.55L357.73 934.18L336.22 901.85C333.35 897.54 327.53 896.37 323.22 899.25C318.91 902.11 317.74 907.93 320.61 912.24L357.32 967.39L356.85 1004.94L335.82 973.36C332.95 969.05 327.14 967.88 322.82 970.75C318.52 973.62 317.35 979.44 320.22 983.75L356.43 1038.15L355.57 1106.24C355.5 1111.42 359.65 1115.67 364.82 1115.73C367.46 1115.76 369.85 1114.71 371.57 1112.99C373.24 1111.32 374.29 1109.02 374.32 1106.48L375.12 1042.52L422.91 993.07C426.51 989.35 426.41 983.42 422.69 979.82C419 976.25 413.15 976.32 409.55 979.92C409.51 979.96 409.47 980 409.43 980.04L375.47 1015.18L376.03 970.48L423.31 921.56C426.9 917.84 426.8 911.91 423.08 908.31C419.39 904.75 413.55 904.81 409.94 908.42C409.9 908.46 409.86 908.49 409.82 908.53L376.37 943.14L377.58 846.79C377.65 841.61 373.51 837.36 368.33 837.29Z" />
	</g>
	<g id="Layer">
		<g id="Layer">
			<path id="Layer" class="shp4" d="M1134.59 203.45L1134.59 203.45C1123.16 203.45 1113.89 212.71 1113.89 224.14L1113.89 451.72L1155.27 451.72L1155.27 224.14C1155.28 212.71 1146.01 203.45 1134.59 203.45Z" />
			<path id="Layer" class="shp4" d="M1217.35 286.21L1217.35 286.21C1205.92 286.21 1196.65 295.47 1196.65 306.9L1196.65 534.48L1238.03 534.48L1238.03 306.9C1238.03 295.47 1228.77 286.21 1217.35 286.21Z" />
		</g>
		<path id="Layer" class="shp5" d="M1072.52 410.35L1341.49 410.35C1352.91 410.35 1362.18 419.61 1362.18 431.04L1362.18 1279.31L1072.52 1279.31L1072.52 410.35Z" />
		<g id="Layer">
			<path id="Layer" class="shp4" d="M1072.52 1196.55L1362.17 1196.55L1362.17 1279.31L1072.52 1279.31L1072.52 1196.55Z" />
			<path id="Layer" class="shp4" d="M1051.83 1113.79L1362.17 1113.79L1362.17 1155.17L1051.83 1155.17L1051.83 1113.79Z" />
		</g>
		<g id="Layer">
			<path id="Layer" class="shp6" d="M1279.41 1113.79L1320.79 1113.79L1320.79 1155.17L1279.41 1155.17L1279.41 1113.79Z" />
			<path id="Layer" class="shp6" d="M1113.9 1113.79L1155.28 1113.79L1155.28 1155.17L1113.9 1155.17L1113.9 1113.79Z" />
			<path id="Layer" class="shp6" d="M1196.65 1113.79L1238.03 1113.79L1238.03 1155.17L1196.65 1155.17L1196.65 1113.79Z" />
		</g>
		<path id="Layer" class="shp4" d="M1051.83 1031.03L1362.17 1031.03L1362.17 1072.41L1051.83 1072.41L1051.83 1031.03Z" />
		<g id="Layer">
			<path id="Layer" class="shp6" d="M1279.41 1031.03L1320.79 1031.03L1320.79 1072.41L1279.41 1072.41L1279.41 1031.03Z" />
			<path id="Layer" class="shp6" d="M1113.9 1031.03L1155.28 1031.03L1155.28 1072.41L1113.9 1072.41L1113.9 1031.03Z" />
			<path id="Layer" class="shp6" d="M1196.65 1031.03L1238.03 1031.03L1238.03 1072.41L1196.65 1072.41L1196.65 1031.03Z" />
		</g>
		<path id="Layer" class="shp4" d="M1051.83 948.27L1362.17 948.27L1362.17 989.65L1051.83 989.65L1051.83 948.27Z" />
		<g id="Layer">
			<path id="Layer" class="shp6" d="M1279.41 948.27L1320.79 948.27L1320.79 989.65L1279.41 989.65L1279.41 948.27Z" />
			<path id="Layer" class="shp6" d="M1113.9 948.27L1155.28 948.27L1155.28 989.65L1113.9 989.65L1113.9 948.27Z" />
			<path id="Layer" class="shp6" d="M1196.65 948.27L1238.03 948.27L1238.03 989.65L1196.65 989.65L1196.65 948.27Z" />
		</g>
		<path id="Layer" class="shp4" d="M1051.83 865.52L1362.17 865.52L1362.17 906.9L1051.83 906.9L1051.83 865.52Z" />
		<g id="Layer">
			<path id="Layer" class="shp6" d="M1279.41 865.52L1320.79 865.52L1320.79 906.9L1279.41 906.9L1279.41 865.52Z" />
			<path id="Layer" class="shp6" d="M1113.9 865.52L1155.28 865.52L1155.28 906.9L1113.9 906.9L1113.9 865.52Z" />
			<path id="Layer" class="shp6" d="M1196.65 865.52L1238.03 865.52L1238.03 906.9L1196.65 906.9L1196.65 865.52Z" />
		</g>
		<path id="Layer" class="shp4" d="M1051.83 782.76L1362.17 782.76L1362.17 824.14L1051.83 824.14L1051.83 782.76Z" />
		<g id="Layer">
			<path id="Layer" class="shp6" d="M1279.41 782.76L1320.79 782.76L1320.79 824.14L1279.41 824.14L1279.41 782.76Z" />
			<path id="Layer" class="shp6" d="M1113.9 782.76L1155.28 782.76L1155.28 824.14L1113.9 824.14L1113.9 782.76Z" />
			<path id="Layer" class="shp6" d="M1196.65 782.76L1238.03 782.76L1238.03 824.14L1196.65 824.14L1196.65 782.76Z" />
		</g>
		<path id="Layer" class="shp4" d="M1051.83 700L1362.17 700L1362.17 741.38L1051.83 741.38L1051.83 700Z" />
		<g id="Layer">
			<path id="Layer" class="shp6" d="M1279.41 700L1320.79 700L1320.79 741.38L1279.41 741.38L1279.41 700Z" />
			<path id="Layer" class="shp6" d="M1113.9 700L1155.28 700L1155.28 741.38L1113.9 741.38L1113.9 700Z" />
			<path id="Layer" class="shp6" d="M1196.65 700L1238.03 700L1238.03 741.38L1196.65 741.38L1196.65 700Z" />
		</g>
		<path id="Layer" class="shp4" d="M1051.83 617.24L1362.17 617.24L1362.17 658.62L1051.83 658.62L1051.83 617.24Z" />
		<g id="Layer">
			<path id="Layer" class="shp6" d="M1279.41 617.24L1320.79 617.24L1320.79 658.62L1279.41 658.62L1279.41 617.24Z" />
			<path id="Layer" class="shp6" d="M1113.9 617.24L1155.28 617.24L1155.28 658.62L1113.9 658.62L1113.9 617.24Z" />
			<path id="Layer" class="shp6" d="M1196.65 617.24L1238.03 617.24L1238.03 658.62L1196.65 658.62L1196.65 617.24Z" />
		</g>
		<path id="Layer" class="shp4" d="M1051.83 534.48L1362.17 534.48L1362.17 575.86L1051.83 575.86L1051.83 534.48Z" />
		<g id="Layer">
			<path id="Layer" class="shp6" d="M1279.41 534.48L1320.79 534.48L1320.79 575.86L1279.41 575.86L1279.41 534.48Z" />
			<path id="Layer" class="shp6" d="M1113.9 534.48L1155.28 534.48L1155.28 575.86L1113.9 575.86L1113.9 534.48Z" />
			<path id="Layer" class="shp6" d="M1196.65 534.48L1238.03 534.48L1238.03 575.86L1196.65 575.86L1196.65 534.48Z" />
		</g>
		<path id="Layer" class="shp4" d="M1051.83 451.72L1362.17 451.72L1362.17 493.1L1051.83 493.1L1051.83 451.72Z" />
		<g id="Layer">
			<path id="Layer" class="shp6" d="M1279.41 451.72L1320.79 451.72L1320.79 493.1L1279.41 493.1L1279.41 451.72Z" />
			<path id="Layer" class="shp6" d="M1113.9 451.72L1155.28 451.72L1155.28 493.1L1113.9 493.1L1113.9 451.72Z" />
			<path id="Layer" class="shp6" d="M1196.65 451.72L1238.03 451.72L1238.03 493.1L1196.65 493.1L1196.65 451.72Z" />
		</g>
		<path id="Layer" class="shp4" d="M1072.52 1279.31L451.83 1279.31L451.83 120.69C451.83 109.26 461.09 100 472.52 100L1051.83 100C1063.25 100 1072.52 109.27 1072.52 120.69L1072.52 1279.31Z" />
		<path id="Layer" class="shp6" d="M513.9 1072.41L513.9 1072.41C502.47 1072.41 493.21 1063.15 493.21 1051.72L493.21 224.14C493.21 212.71 502.47 203.45 513.9 203.45L513.9 203.45C525.32 203.45 534.59 212.71 534.59 224.14L534.59 1051.72C534.59 1063.15 525.32 1072.41 513.9 1072.41Z" />
		<path id="Layer" class="shp7" d="M451.83 1113.79L1072.52 1113.79L1072.52 1279.31L451.83 1279.31L451.83 1113.79Z" />
		<path id="Layer" class="shp8" d="M534.59 1258.62L534.59 1175.86C534.59 1164.44 525.32 1155.17 513.89 1155.17C502.47 1155.17 493.21 1164.44 493.21 1175.86L493.21 1258.62L534.59 1258.62Z" />
		<path id="Layer" class="shp6" d="M596.65 1072.41L596.65 1072.41C585.23 1072.41 575.96 1063.15 575.96 1051.72L575.96 224.14C575.96 212.71 585.23 203.45 596.65 203.45L596.65 203.45C608.08 203.45 617.35 212.71 617.35 224.14L617.35 1051.72C617.35 1063.15 608.08 1072.41 596.65 1072.41Z" />
		<path id="Layer" class="shp8" d="M617.35 1258.62L617.35 1175.86C617.35 1164.44 608.08 1155.17 596.65 1155.17C585.23 1155.17 575.96 1164.44 575.96 1175.86L575.96 1258.62L617.35 1258.62Z" />
		<path id="Layer" class="shp6" d="M679.41 1072.41L679.41 1072.41C667.99 1072.41 658.73 1063.15 658.73 1051.72L658.73 224.14C658.73 212.71 667.99 203.45 679.41 203.45L679.41 203.45C690.84 203.45 700.11 212.71 700.11 224.14L700.11 1051.72C700.1 1063.15 690.84 1072.41 679.41 1072.41Z" />
		<path id="Layer" class="shp8" d="M700.1 1258.62L700.1 1175.86C700.1 1164.44 690.84 1155.17 679.41 1155.17C667.99 1155.17 658.72 1164.44 658.72 1175.86L658.72 1258.62L700.1 1258.62Z" />
		<path id="Layer" class="shp6" d="M762.17 1072.41L762.17 1072.41C750.75 1072.41 741.48 1063.15 741.48 1051.72L741.48 224.14C741.48 212.71 750.75 203.45 762.17 203.45L762.17 203.45C773.6 203.45 782.86 212.71 782.86 224.14L782.86 1051.72C782.86 1063.15 773.6 1072.41 762.17 1072.41Z" />
		<path id="Layer" class="shp8" d="M782.86 1258.62L782.86 1175.86C782.86 1164.44 773.6 1155.17 762.17 1155.17C750.75 1155.17 741.48 1164.44 741.48 1175.86L741.48 1258.62L782.86 1258.62Z" />
		<path id="Layer" class="shp6" d="M844.93 1072.41L844.93 1072.41C833.5 1072.41 824.24 1063.15 824.24 1051.72L824.24 224.14C824.24 212.71 833.51 203.45 844.93 203.45L844.93 203.45C856.36 203.45 865.62 212.71 865.62 224.14L865.62 1051.72C865.62 1063.15 856.36 1072.41 844.93 1072.41Z" />
		<path id="Layer" class="shp8" d="M865.62 1258.62L865.62 1175.86C865.62 1164.44 856.36 1155.17 844.93 1155.17C833.51 1155.17 824.24 1164.44 824.24 1175.86L824.24 1258.62L865.62 1258.62Z" />
		<path id="Layer" class="shp6" d="M927.69 1072.41L927.69 1072.41C916.26 1072.41 907 1063.15 907 1051.72L907 224.14C907 212.71 916.26 203.45 927.69 203.45L927.69 203.45C939.12 203.45 948.38 212.71 948.38 224.14L948.38 1051.72C948.38 1063.15 939.12 1072.41 927.69 1072.41Z" />
		<path id="Layer" class="shp8" d="M948.38 1258.62L948.38 1175.86C948.38 1164.44 939.11 1155.17 927.69 1155.17C916.26 1155.17 907 1164.44 907 1175.86L907 1258.62L948.38 1258.62L948.38 1258.62Z" />
		<path id="Layer" class="shp6" d="M1010.45 1072.41L1010.45 1072.41C999.02 1072.41 989.76 1063.15 989.76 1051.72L989.76 224.14C989.76 212.71 999.02 203.45 1010.45 203.45L1010.45 203.45C1021.87 203.45 1031.14 212.71 1031.14 224.14L1031.14 1051.72C1031.14 1063.15 1021.87 1072.41 1010.45 1072.41Z" />
		<g id="Layer">
			<path id="Layer" class="shp8" d="M1031.14 1258.62L1031.14 1175.86C1031.14 1164.44 1021.87 1155.17 1010.45 1155.17C999.02 1155.17 989.76 1164.44 989.76 1175.86L989.76 1258.62L1031.14 1258.62Z" />
			<path id="Layer" class="shp8" d="M493.21 989.65L534.59 989.65L534.59 1031.03L493.21 1031.03L493.21 989.65Z" />
			<path id="Layer" class="shp8" d="M575.97 989.65L617.35 989.65L617.35 1031.03L575.97 1031.03L575.97 989.65Z" />
			<path id="Layer" class="shp8" d="M658.73 989.65L700.1 989.65L700.1 1031.03L658.73 1031.03L658.73 989.65Z" />
			<path id="Layer" class="shp8" d="M741.48 989.65L782.86 989.65L782.86 1031.03L741.48 1031.03L741.48 989.65Z" />
			<path id="Layer" class="shp8" d="M824.24 989.65L865.62 989.65L865.62 1031.03L824.24 1031.03L824.24 989.65Z" />
			<path id="Layer" class="shp8" d="M907 989.65L948.38 989.65L948.38 1031.03L907 1031.03L907 989.65Z" />
			<path id="Layer" class="shp8" d="M989.76 989.65L1031.14 989.65L1031.14 1031.03L989.76 1031.03L989.76 989.65Z" />
			<path id="Layer" class="shp8" d="M493.21 865.52L534.59 865.52L534.59 906.9L493.21 906.9L493.21 865.52Z" />
			<path id="Layer" class="shp8" d="M575.97 865.52L617.35 865.52L617.35 906.9L575.97 906.9L575.97 865.52Z" />
			<path id="Layer" class="shp8" d="M658.73 865.52L700.1 865.52L700.1 906.9L658.73 906.9L658.73 865.52Z" />
			<path id="Layer" class="shp8" d="M741.48 865.52L782.86 865.52L782.86 906.9L741.48 906.9L741.48 865.52Z" />
			<path id="Layer" class="shp8" d="M824.24 865.52L865.62 865.52L865.62 906.9L824.24 906.9L824.24 865.52Z" />
			<path id="Layer" class="shp8" d="M907 865.52L948.38 865.52L948.38 906.9L907 906.9L907 865.52Z" />
			<path id="Layer" class="shp8" d="M989.76 865.52L1031.14 865.52L1031.14 906.9L989.76 906.9L989.76 865.52Z" />
			<path id="Layer" class="shp8" d="M493.21 741.38L534.59 741.38L534.59 782.76L493.21 782.76L493.21 741.38Z" />
			<path id="Layer" class="shp8" d="M575.97 741.38L617.35 741.38L617.35 782.76L575.97 782.76L575.97 741.38Z" />
			<path id="Layer" class="shp8" d="M658.73 741.38L700.1 741.38L700.1 782.76L658.73 782.76L658.73 741.38Z" />
			<path id="Layer" class="shp8" d="M741.48 741.38L782.86 741.38L782.86 782.76L741.48 782.76L741.48 741.38Z" />
			<path id="Layer" class="shp8" d="M824.24 741.38L865.62 741.38L865.62 782.76L824.24 782.76L824.24 741.38Z" />
			<path id="Layer" class="shp8" d="M907 741.38L948.38 741.38L948.38 782.76L907 782.76L907 741.38Z" />
			<path id="Layer" class="shp8" d="M989.76 741.38L1031.14 741.38L1031.14 782.76L989.76 782.76L989.76 741.38Z" />
			<path id="Layer" class="shp8" d="M493.21 617.24L534.59 617.24L534.59 658.62L493.21 658.62L493.21 617.24Z" />
			<path id="Layer" class="shp8" d="M575.97 617.24L617.35 617.24L617.35 658.62L575.97 658.62L575.97 617.24Z" />
			<path id="Layer" class="shp8" d="M658.73 617.24L700.1 617.24L700.1 658.62L658.73 658.62L658.73 617.24Z" />
			<path id="Layer" class="shp8" d="M741.48 617.24L782.86 617.24L782.86 658.62L741.48 658.62L741.48 617.24Z" />
			<path id="Layer" class="shp8" d="M824.24 617.24L865.62 617.24L865.62 658.62L824.24 658.62L824.24 617.24Z" />
			<path id="Layer" class="shp8" d="M907 617.24L948.38 617.24L948.38 658.62L907 658.62L907 617.24Z" />
			<path id="Layer" class="shp8" d="M989.76 617.24L1031.14 617.24L1031.14 658.62L989.76 658.62L989.76 617.24Z" />
			<path id="Layer" class="shp8" d="M493.21 493.1L534.59 493.1L534.59 534.48L493.21 534.48L493.21 493.1Z" />
			<path id="Layer" class="shp8" d="M575.97 493.1L617.35 493.1L617.35 534.48L575.97 534.48L575.97 493.1Z" />
			<path id="Layer" class="shp8" d="M658.73 493.1L700.1 493.1L700.1 534.48L658.73 534.48L658.73 493.1Z" />
			<path id="Layer" class="shp8" d="M741.48 493.1L782.86 493.1L782.86 534.48L741.48 534.48L741.48 493.1Z" />
			<path id="Layer" class="shp8" d="M824.24 493.1L865.62 493.1L865.62 534.48L824.24 534.48L824.24 493.1Z" />
			<path id="Layer" class="shp8" d="M907 493.1L948.38 493.1L948.38 534.48L907 534.48L907 493.1Z" />
			<path id="Layer" class="shp8" d="M989.76 493.1L1031.14 493.1L1031.14 534.48L989.76 534.48L989.76 493.1Z" />
			<path id="Layer" class="shp8" d="M493.21 368.97L534.59 368.97L534.59 410.35L493.21 410.35L493.21 368.97Z" />
			<path id="Layer" class="shp8" d="M575.97 368.97L617.35 368.97L617.35 410.35L575.97 410.35L575.97 368.97Z" />
			<path id="Layer" class="shp8" d="M658.73 368.97L700.1 368.97L700.1 410.35L658.73 410.35L658.73 368.97Z" />
			<path id="Layer" class="shp8" d="M741.48 368.97L782.86 368.97L782.86 410.35L741.48 410.35L741.48 368.97Z" />
			<path id="Layer" class="shp8" d="M824.24 368.97L865.62 368.97L865.62 410.35L824.24 410.35L824.24 368.97Z" />
			<path id="Layer" class="shp8" d="M907 368.97L948.38 368.97L948.38 410.35L907 410.35L907 368.97Z" />
			<path id="Layer" class="shp8" d="M989.76 368.97L1031.14 368.97L1031.14 410.35L989.76 410.35L989.76 368.97Z" />
			<path id="Layer" class="shp8" d="M493.21 244.83L534.59 244.83L534.59 286.21L493.21 286.21L493.21 244.83Z" />
			<path id="Layer" class="shp8" d="M575.97 244.83L617.35 244.83L617.35 286.21L575.97 286.21L575.97 244.83Z" />
			<path id="Layer" class="shp8" d="M658.73 244.83L700.1 244.83L700.1 286.21L658.73 286.21L658.73 244.83Z" />
			<path id="Layer" class="shp8" d="M741.48 244.83L782.86 244.83L782.86 286.21L741.48 286.21L741.48 244.83Z" />
			<path id="Layer" class="shp8" d="M824.24 244.83L865.62 244.83L865.62 286.21L824.24 286.21L824.24 244.83Z" />
			<path id="Layer" class="shp8" d="M907 244.83L948.38 244.83L948.38 286.21L907 286.21L907 244.83Z" />
			<path id="Layer" class="shp8" d="M989.76 244.83L1031.14 244.83L1031.14 286.21L989.76 286.21L989.76 244.83Z" />
		</g>
		<g id="Layer">
			<path id="Layer" class="shp6" d="M1072.52 162.07L451.83 162.07L451.83 120.69C451.83 109.26 461.09 100 472.52 100L1051.83 100C1063.25 100 1072.52 109.27 1072.52 120.69L1072.52 162.07Z" />
			<path id="Layer" class="shp6" d="M1382.86 1300L431.14 1300C419.71 1300 410.45 1290.73 410.45 1279.31L410.45 1279.31C410.45 1267.88 419.71 1258.62 431.14 1258.62L1382.86 1258.62C1394.29 1258.62 1403.55 1267.88 1403.55 1279.31L1403.55 1279.31C1403.55 1290.73 1394.29 1300 1382.86 1300Z" />
		</g>
	</g>
</svg>