<svg xmlns="http://www.w3.org/2000/svg" viewBox="0 0 17 14" width="50" height="41">
	<style>
		tspan { white-space:pre }
		.shp0 { fill: #45a6de } 
	</style>
	<path id="Layer" fill-rule="evenodd" class="shp0" d="M4.99 10.92C3.29 10.86 2.22 9.63 1.94 8.64C2.41 8.73 2.88 8.71 3.34 8.6C3.36 8.59 3.37 8.59 3.39 8.58C2.47 8.36 1.75 7.87 1.26 7.07C0.93 6.54 0.77 5.96 0.78 5.32C1.24 5.57 1.72 5.71 2.24 5.72C1.55 5.22 1.08 4.57 0.89 3.73C0.7 2.89 0.82 2.1 1.24 1.35C3.02 3.45 5.27 4.59 8.01 4.78C7.99 4.65 7.97 4.54 7.96 4.42C7.87 3.65 8.02 2.93 8.44 2.28C8.96 1.46 9.71 0.95 10.66 0.79C11.77 0.61 12.73 0.93 13.54 1.71C13.59 1.76 13.64 1.78 13.71 1.76C14.39 1.62 15.02 1.37 15.62 1.03C15.64 1.02 15.65 1.01 15.67 1.01C15.67 1 15.67 1 15.69 1C15.43 1.77 14.96 2.36 14.28 2.79C14.92 2.72 15.52 2.55 16.11 2.3C16.12 2.3 16.12 2.31 16.12 2.31C16 2.48 15.88 2.65 15.75 2.81C15.4 3.24 15 3.61 14.55 3.94C14.52 3.97 14.5 4 14.5 4.04C14.52 4.53 14.5 5.02 14.44 5.5C14.31 6.52 14.03 7.49 13.59 8.42C13.14 9.38 12.55 10.25 11.82 11.01C10.57 12.31 9.06 13.14 7.3 13.53C6.7 13.66 6.09 13.73 5.48 13.74C3.58 13.8 1.83 13.33 0.22 12.33C0.2 12.32 0.18 12.31 0.15 12.28C1.29 12.41 2.38 12.26 3.43 11.83C3.99 11.6 4.5 11.3 4.99 10.92Z" />
</svg>