<svg xmlns="http://www.w3.org/2000/svg" viewBox="0 0 17 12" width="50" height="35">
	<style>
		tspan { white-space:pre }
		.shp0 { fill: #45a6de } 
	</style>
	<path id="Layer" fill-rule="evenodd" class="shp0" d="M2.47 11.58C1.86 11.38 1.45 10.98 1.23 10.37C0.7 8.89 0.54 2.71 1.57 1.5C1.93 1.08 2.38 0.83 2.92 0.78C5.71 0.48 14.33 0.52 15.32 0.88C15.9 1.09 16.32 1.47 16.54 2.05C17.13 3.58 17.15 9.14 16.47 10.61C16.28 11.01 15.98 11.29 15.59 11.49C14.55 12.04 3.84 12.03 2.47 11.58ZM6.9 8.68C8.58 7.81 10.24 6.95 11.93 6.08C10.24 5.2 8.58 4.33 6.9 3.46C6.9 5.2 6.9 6.93 6.9 8.68Z" />
</svg>