<?xml version="1.0" encoding="utf-8"?>
<!-- Generator: Adobe Illustrator 16.0.3, SVG Export Plug-In . SVG Version: 6.00 Build 0)  -->
<!DOCTYPE svg PUBLIC "-//W3C//DTD SVG 1.1//EN" "http://www.w3.org/Graphics/SVG/1.1/DTD/svg11.dtd">
<svg version="1.1" id="Layer_1" xmlns="http://www.w3.org/2000/svg" xmlns:xlink="http://www.w3.org/1999/xlink" x="0px" y="0px"
	 width="58.5px" height="56.223px" viewBox="0 0 58.5 56.223" enable-background="new 0 0 58.5 56.223" xml:space="preserve">
<g opacity="0.4">
	<path fill="#FFFFFF" d="M15.636,4.96l-8.952,8.952C7.567,12.457,8.6,11.1,9.728,9.837l1.836-1.836
		C12.826,6.874,14.183,5.841,15.636,4.96z"/>
	<path fill="#FFFFFF" d="M20.246,2.702L4.429,18.522c0.209-0.611,0.459-1.185,0.729-1.759L18.469,3.449
		C19.043,3.182,19.637,2.932,20.246,2.702z"/>
	<path fill="#FFFFFF" d="M23.614,1.689L3.416,21.887c0.095-0.459,0.209-0.918,0.345-1.377L22.236,2.034
		C22.676,1.919,23.154,1.785,23.614,1.689z"/>
	<path fill="#FFFFFF" d="M26.482,1.173L2.897,24.756c0.06-0.402,0.115-0.784,0.175-1.185L25.296,1.345
		C25.68,1.288,26.084,1.23,26.482,1.173z"/>
	<path fill="#FFFFFF" d="M29.008,1.001l-26.28,26.28c0-0.345,0.02-0.707,0.04-1.053l25.168-25.17
		C28.299,1.021,28.643,1.001,29.008,1.001z"/>
	<path fill="#FFFFFF" d="M31.343,1.039L2.767,29.616c-0.04-0.327-0.04-0.672-0.04-0.996L30.345,1.001
		C30.669,1.001,31.013,1.001,31.343,1.039z"/>
	<path fill="#FFFFFF" d="M33.483,1.25L2.957,31.776c-0.04-0.307-0.075-0.611-0.115-0.918L32.585,1.116
		C32.89,1.156,33.199,1.193,33.483,1.25z"/>
	<path fill="#FFFFFF" d="M35.494,1.595L3.321,33.765c-0.06-0.286-0.115-0.573-0.175-0.86L34.631,1.423
		C34.915,1.48,35.205,1.537,35.494,1.595z"/>
	<path fill="#FFFFFF" d="M37.364,2.074L3.8,35.641c-0.08-0.269-0.155-0.536-0.229-0.786l33.01-33.013
		C36.851,1.919,37.115,1.997,37.364,2.074z"/>
	<path fill="#FFFFFF" d="M39.127,2.665L4.389,37.4c-0.114-0.25-0.189-0.497-0.264-0.746L38.378,2.398
		C38.628,2.476,38.877,2.55,39.127,2.665z"/>
	<path fill="#FFFFFF" d="M40.808,3.354L5.063,39.101c-0.1-0.247-0.215-0.476-0.31-0.726L40.1,3.029
		C40.35,3.124,40.578,3.239,40.808,3.354z"/>
	<path fill="#FFFFFF" d="M42.395,4.119L5.846,40.67c-0.134-0.229-0.25-0.459-0.344-0.688L41.705,3.775
		C41.936,3.87,42.164,3.985,42.395,4.119z"/>
	<path fill="#FFFFFF" d="M43.887,4.98L6.704,42.162c-0.149-0.209-0.285-0.421-0.379-0.651L43.237,4.596
		C43.468,4.713,43.677,4.826,43.887,4.98z"/>
	<path fill="#FFFFFF" d="M45.323,5.898L7.623,43.597c-0.135-0.192-0.265-0.401-0.4-0.611L44.71,5.496
		C44.919,5.631,45.113,5.763,45.323,5.898z"/>
	<path fill="#FFFFFF" d="M46.66,6.911L8.635,44.937c-0.15-0.192-0.305-0.385-0.439-0.574l37.891-37.89
		C46.281,6.607,46.471,6.759,46.66,6.911z"/>
	<path fill="#FFFFFF" d="M47.942,8.001L9.728,46.216c-0.155-0.188-0.324-0.361-0.479-0.553l38.14-38.138
		C47.579,7.677,47.754,7.849,47.942,8.001z"/>
	
		<rect x="2.718" y="27.663" transform="matrix(0.7071 -0.7071 0.7071 0.7071 -11.1044 29.2481)" fill="#FFFFFF" width="54.072" height="0.731"/>
	<path fill="#FFFFFF" d="M50.258,10.391l-38.14,38.14c-0.19-0.151-0.364-0.324-0.554-0.479L49.778,9.837
		C49.934,10.03,50.103,10.202,50.258,10.391z"/>
	<path fill="#FFFFFF" d="M51.311,11.694l-37.89,37.89c-0.195-0.135-0.385-0.287-0.574-0.441L50.872,11.12
		C51.021,11.312,51.176,11.501,51.311,11.694z"/>
	<path fill="#FFFFFF" d="M52.283,13.071L14.797,50.56c-0.209-0.134-0.404-0.27-0.614-0.402l37.701-37.701
		C52.02,12.649,52.148,12.859,52.283,13.071z"/>
	<path fill="#FFFFFF" d="M53.182,14.542L16.27,51.458c-0.23-0.115-0.44-0.229-0.648-0.382l37.182-37.182
		C52.952,14.104,53.087,14.313,53.182,14.542z"/>
	<path fill="#FFFFFF" d="M54.005,16.072L17.8,52.281c-0.229-0.098-0.458-0.212-0.688-0.345l36.549-36.551
		C53.795,15.615,53.91,15.845,54.005,16.072z"/>
	<path fill="#FFFFFF" d="M54.753,17.681L19.407,53.026c-0.25-0.097-0.479-0.212-0.709-0.326l35.746-35.748
		C54.544,17.202,54.659,17.432,54.753,17.681z"/>
	<path fill="#FFFFFF" d="M55.383,19.402L21.13,53.658c-0.25-0.077-0.5-0.154-0.75-0.271l34.738-34.731
		C55.232,18.903,55.308,19.153,55.383,19.402z"/>
	<path fill="#FFFFFF" d="M55.936,21.199l-33.01,33.014c-0.27-0.078-0.534-0.153-0.783-0.23l33.564-33.567
		C55.786,20.682,55.861,20.949,55.936,21.199z"/>
	<path fill="#FFFFFF" d="M56.359,23.149L24.876,54.633c-0.289-0.057-0.574-0.114-0.858-0.171l32.168-32.173
		C56.245,22.576,56.301,22.862,56.359,23.149z"/>
	<path fill="#FFFFFF" d="M56.665,25.197L26.922,54.938c-0.305-0.038-0.614-0.075-0.898-0.133L56.55,24.28
		C56.59,24.584,56.625,24.891,56.665,25.197z"/>
	<path fill="#FFFFFF" d="M56.779,27.436L29.162,55.053c-0.324,0-0.669,0-0.998-0.037L56.739,26.44
		C56.779,26.764,56.779,27.109,56.779,27.436z"/>
	<path fill="#FFFFFF" d="M56.779,28.772c0,0.345-0.021,0.709-0.04,1.054L31.571,54.995c-0.363,0.041-0.708,0.058-1.072,0.058
		L56.779,28.772z"/>
	<path fill="#FFFFFF" d="M56.609,31.298c-0.06,0.401-0.114,0.785-0.175,1.187L34.211,54.708c-0.384,0.058-0.783,0.115-1.187,0.173
		L56.609,31.298z"/>
	<path fill="#FFFFFF" d="M56.091,34.166c-0.095,0.46-0.21,0.919-0.345,1.378L37.271,54.02c-0.439,0.115-0.918,0.25-1.378,0.345
		L56.091,34.166z"/>
	<path fill="#FFFFFF" d="M55.078,37.534c-0.209,0.611-0.459,1.185-0.729,1.76L41.037,52.605c-0.573,0.267-1.168,0.517-1.776,0.745
		L55.078,37.534z"/>
	<path fill="#FFFFFF" d="M52.822,42.143c-0.883,1.454-1.915,2.812-3.044,4.073l-1.836,1.836c-1.262,1.131-2.619,2.164-4.071,3.041
		L52.822,42.143z"/>
</g>
</svg>
